<mxfile host="app.diagrams.net" modified="2023-03-31T02:09:11.802Z" agent="Mozilla/5.0 (Windows NT 10.0; Win64; x64) AppleWebKit/537.36 (KHTML, like Gecko) Chrome/111.0.0.0 Safari/537.36" etag="RBbi6fCtmMgTw5bmhg7c" version="21.1.2" type="device">
  <diagram id="C5RBs43oDa-KdzZeNtuy" name="Page-1">
    <mxGraphModel dx="4483" dy="819" grid="1" gridSize="10" guides="1" tooltips="1" connect="1" arrows="1" fold="1" page="1" pageScale="1" pageWidth="1200" pageHeight="1920" math="0" shadow="0">
      <root>
        <mxCell id="WIyWlLk6GJQsqaUBKTNV-0" />
        <mxCell id="WIyWlLk6GJQsqaUBKTNV-1" parent="WIyWlLk6GJQsqaUBKTNV-0" />
        <mxCell id="yu7Q_5mXm-o3Nk47Cqs4-1" value="&lt;font style=&quot;font-size: 14px;&quot;&gt;movies&lt;/font&gt;" style="rounded=0;whiteSpace=wrap;html=1;" parent="WIyWlLk6GJQsqaUBKTNV-1" vertex="1">
          <mxGeometry x="-952.5" y="195" width="80" height="40" as="geometry" />
        </mxCell>
        <mxCell id="yu7Q_5mXm-o3Nk47Cqs4-2" value="id" style="ellipse;whiteSpace=wrap;html=1;" parent="WIyWlLk6GJQsqaUBKTNV-1" vertex="1">
          <mxGeometry x="-1612.5" y="272.5" width="90" height="50" as="geometry" />
        </mxCell>
        <mxCell id="yu7Q_5mXm-o3Nk47Cqs4-3" value="title" style="ellipse;whiteSpace=wrap;html=1;" parent="WIyWlLk6GJQsqaUBKTNV-1" vertex="1">
          <mxGeometry x="-1092.5" y="120" width="100" height="50" as="geometry" />
        </mxCell>
        <mxCell id="yu7Q_5mXm-o3Nk47Cqs4-4" value="create_at" style="ellipse;whiteSpace=wrap;html=1;" parent="WIyWlLk6GJQsqaUBKTNV-1" vertex="1">
          <mxGeometry x="-1002.5" y="290" width="100" height="50" as="geometry" />
        </mxCell>
        <mxCell id="yu7Q_5mXm-o3Nk47Cqs4-5" value="studio_name" style="ellipse;whiteSpace=wrap;html=1;" parent="WIyWlLk6GJQsqaUBKTNV-1" vertex="1">
          <mxGeometry x="-920" y="240" width="100" height="50" as="geometry" />
        </mxCell>
        <mxCell id="yu7Q_5mXm-o3Nk47Cqs4-6" value="&lt;i&gt;movies_series&lt;/i&gt;" style="rounded=0;whiteSpace=wrap;html=1;" parent="WIyWlLk6GJQsqaUBKTNV-1" vertex="1">
          <mxGeometry x="-987.5" y="380" width="100" height="40" as="geometry" />
        </mxCell>
        <mxCell id="yu7Q_5mXm-o3Nk47Cqs4-7" value="" style="endArrow=none;html=1;rounded=0;exitX=1;exitY=0.5;exitDx=0;exitDy=0;entryX=1;entryY=0.5;entryDx=0;entryDy=0;" parent="WIyWlLk6GJQsqaUBKTNV-1" source="Sm3ua9VbbbEYiEAEW8gV-5" target="yu7Q_5mXm-o3Nk47Cqs4-1" edge="1">
          <mxGeometry width="50" height="50" relative="1" as="geometry">
            <mxPoint x="95" y="217.5" as="sourcePoint" />
            <mxPoint x="-285" y="112.5" as="targetPoint" />
          </mxGeometry>
        </mxCell>
        <mxCell id="yu7Q_5mXm-o3Nk47Cqs4-9" value="" style="endArrow=none;html=1;rounded=0;entryX=1;entryY=1;entryDx=0;entryDy=0;exitX=0;exitY=0;exitDx=0;exitDy=0;" parent="WIyWlLk6GJQsqaUBKTNV-1" source="yu7Q_5mXm-o3Nk47Cqs4-1" edge="1">
          <mxGeometry width="50" height="50" relative="1" as="geometry">
            <mxPoint x="36" y="247.5" as="sourcePoint" />
            <mxPoint x="-989.6446609406726" y="162.67766952966394" as="targetPoint" />
          </mxGeometry>
        </mxCell>
        <mxCell id="yu7Q_5mXm-o3Nk47Cqs4-10" value="" style="endArrow=none;html=1;rounded=0;entryX=1;entryY=0.75;entryDx=0;entryDy=0;exitX=0.5;exitY=0;exitDx=0;exitDy=0;" parent="WIyWlLk6GJQsqaUBKTNV-1" source="yu7Q_5mXm-o3Nk47Cqs4-5" target="yu7Q_5mXm-o3Nk47Cqs4-1" edge="1">
          <mxGeometry width="50" height="50" relative="1" as="geometry">
            <mxPoint x="-890.2342392259025" y="245.13736367696538" as="sourcePoint" />
            <mxPoint x="-5" y="237.5" as="targetPoint" />
          </mxGeometry>
        </mxCell>
        <mxCell id="yu7Q_5mXm-o3Nk47Cqs4-11" value="" style="endArrow=none;html=1;rounded=0;entryX=0;entryY=1;entryDx=0;entryDy=0;" parent="WIyWlLk6GJQsqaUBKTNV-1" source="Sm3ua9VbbbEYiEAEW8gV-13" target="yu7Q_5mXm-o3Nk47Cqs4-6" edge="1">
          <mxGeometry width="50" height="50" relative="1" as="geometry">
            <mxPoint x="133.5" y="205" as="sourcePoint" />
            <mxPoint x="82.5" y="185" as="targetPoint" />
            <Array as="points" />
          </mxGeometry>
        </mxCell>
        <mxCell id="yu7Q_5mXm-o3Nk47Cqs4-12" value="" style="endArrow=none;html=1;rounded=0;entryX=0;entryY=0;entryDx=0;entryDy=0;exitX=1;exitY=1;exitDx=0;exitDy=0;" parent="WIyWlLk6GJQsqaUBKTNV-1" source="yu7Q_5mXm-o3Nk47Cqs4-4" target="yu7Q_5mXm-o3Nk47Cqs4-6" edge="1">
          <mxGeometry width="50" height="50" relative="1" as="geometry">
            <mxPoint x="221.5" y="308" as="sourcePoint" />
            <mxPoint x="297.5" y="285" as="targetPoint" />
            <Array as="points" />
          </mxGeometry>
        </mxCell>
        <mxCell id="yu7Q_5mXm-o3Nk47Cqs4-13" value="date_aired" style="ellipse;whiteSpace=wrap;html=1;" parent="WIyWlLk6GJQsqaUBKTNV-1" vertex="1">
          <mxGeometry x="-1072.5" y="525" width="100" height="50" as="geometry" />
        </mxCell>
        <mxCell id="yu7Q_5mXm-o3Nk47Cqs4-14" value="description" style="ellipse;whiteSpace=wrap;html=1;" parent="WIyWlLk6GJQsqaUBKTNV-1" vertex="1">
          <mxGeometry x="-852.5" y="455" width="100" height="50" as="geometry" />
        </mxCell>
        <mxCell id="yu7Q_5mXm-o3Nk47Cqs4-15" value="total_episode" style="ellipse;whiteSpace=wrap;html=1;" parent="WIyWlLk6GJQsqaUBKTNV-1" vertex="1">
          <mxGeometry x="-892.5" y="295" width="100" height="50" as="geometry" />
        </mxCell>
        <mxCell id="yu7Q_5mXm-o3Nk47Cqs4-16" value="image" style="ellipse;whiteSpace=wrap;html=1;" parent="WIyWlLk6GJQsqaUBKTNV-1" vertex="1">
          <mxGeometry x="-832.5" y="345" width="100" height="50" as="geometry" />
        </mxCell>
        <mxCell id="yu7Q_5mXm-o3Nk47Cqs4-17" value="name" style="ellipse;whiteSpace=wrap;html=1;" parent="WIyWlLk6GJQsqaUBKTNV-1" vertex="1">
          <mxGeometry x="-877.5" y="517.5" width="70" height="45" as="geometry" />
        </mxCell>
        <mxCell id="yu7Q_5mXm-o3Nk47Cqs4-19" value="&lt;i&gt;categories&lt;/i&gt;" style="rounded=0;whiteSpace=wrap;html=1;" parent="WIyWlLk6GJQsqaUBKTNV-1" vertex="1">
          <mxGeometry x="-1592.5" y="212.5" width="70" height="32.5" as="geometry" />
        </mxCell>
        <mxCell id="yu7Q_5mXm-o3Nk47Cqs4-24" value="" style="endArrow=none;html=1;rounded=0;entryX=0.5;entryY=1;entryDx=0;entryDy=0;" parent="WIyWlLk6GJQsqaUBKTNV-1" source="yu7Q_5mXm-o3Nk47Cqs4-2" target="yu7Q_5mXm-o3Nk47Cqs4-19" edge="1">
          <mxGeometry width="50" height="50" relative="1" as="geometry">
            <mxPoint x="-232.5" y="372.5" as="sourcePoint" />
            <mxPoint x="-242.5" y="312.5" as="targetPoint" />
          </mxGeometry>
        </mxCell>
        <mxCell id="yu7Q_5mXm-o3Nk47Cqs4-27" value="" style="endArrow=none;html=1;rounded=0;entryX=0.75;entryY=1;entryDx=0;entryDy=0;" parent="WIyWlLk6GJQsqaUBKTNV-1" source="yu7Q_5mXm-o3Nk47Cqs4-17" target="yu7Q_5mXm-o3Nk47Cqs4-6" edge="1">
          <mxGeometry width="50" height="50" relative="1" as="geometry">
            <mxPoint x="107.5" y="226" as="sourcePoint" />
            <mxPoint x="82.5" y="185" as="targetPoint" />
          </mxGeometry>
        </mxCell>
        <mxCell id="yu7Q_5mXm-o3Nk47Cqs4-34" value="&lt;i&gt;episodes&lt;/i&gt;" style="rounded=0;whiteSpace=wrap;html=1;" parent="WIyWlLk6GJQsqaUBKTNV-1" vertex="1">
          <mxGeometry x="-655" y="545" width="100" height="40" as="geometry" />
        </mxCell>
        <mxCell id="yu7Q_5mXm-o3Nk47Cqs4-36" value="" style="endArrow=none;html=1;rounded=0;entryX=0.5;entryY=1;entryDx=0;entryDy=0;exitX=1;exitY=0;exitDx=0;exitDy=0;" parent="WIyWlLk6GJQsqaUBKTNV-1" source="yu7Q_5mXm-o3Nk47Cqs4-34" target="Sm3ua9VbbbEYiEAEW8gV-12" edge="1">
          <mxGeometry width="50" height="50" relative="1" as="geometry">
            <mxPoint x="5" y="135" as="sourcePoint" />
            <mxPoint x="55" y="85" as="targetPoint" />
            <Array as="points">
              <mxPoint x="-520" y="500" />
            </Array>
          </mxGeometry>
        </mxCell>
        <mxCell id="yu7Q_5mXm-o3Nk47Cqs4-38" value="" style="endArrow=none;html=1;rounded=0;entryX=0.5;entryY=1;entryDx=0;entryDy=0;entryPerimeter=0;exitX=0.5;exitY=0;exitDx=0;exitDy=0;" parent="WIyWlLk6GJQsqaUBKTNV-1" source="yu7Q_5mXm-o3Nk47Cqs4-34" target="Sm3ua9VbbbEYiEAEW8gV-6" edge="1">
          <mxGeometry width="50" height="50" relative="1" as="geometry">
            <mxPoint x="5" y="135" as="sourcePoint" />
            <mxPoint x="55" y="85" as="targetPoint" />
            <Array as="points" />
          </mxGeometry>
        </mxCell>
        <mxCell id="yu7Q_5mXm-o3Nk47Cqs4-42" value="resource_public_id" style="ellipse;whiteSpace=wrap;html=1;" parent="WIyWlLk6GJQsqaUBKTNV-1" vertex="1">
          <mxGeometry x="-877.5" y="610" width="120" height="50" as="geometry" />
        </mxCell>
        <mxCell id="yu7Q_5mXm-o3Nk47Cqs4-39" value="enable" style="ellipse;whiteSpace=wrap;html=1;" parent="WIyWlLk6GJQsqaUBKTNV-1" vertex="1">
          <mxGeometry x="-490" y="575" width="65" height="45" as="geometry" />
        </mxCell>
        <mxCell id="yu7Q_5mXm-o3Nk47Cqs4-44" value="total_view" style="ellipse;whiteSpace=wrap;html=1;" parent="WIyWlLk6GJQsqaUBKTNV-1" vertex="1">
          <mxGeometry x="-575" y="665" width="100" height="50" as="geometry" />
        </mxCell>
        <mxCell id="yu7Q_5mXm-o3Nk47Cqs4-46" value="premium_required" style="ellipse;whiteSpace=wrap;html=1;" parent="WIyWlLk6GJQsqaUBKTNV-1" vertex="1">
          <mxGeometry x="-662.5" y="705" width="115" height="50" as="geometry" />
        </mxCell>
        <mxCell id="yu7Q_5mXm-o3Nk47Cqs4-47" value="resource" style="ellipse;whiteSpace=wrap;html=1;" parent="WIyWlLk6GJQsqaUBKTNV-1" vertex="1">
          <mxGeometry x="-857.5" y="672.5" width="100" height="50" as="geometry" />
        </mxCell>
        <mxCell id="yu7Q_5mXm-o3Nk47Cqs4-48" value="title" style="ellipse;whiteSpace=wrap;html=1;" parent="WIyWlLk6GJQsqaUBKTNV-1" vertex="1">
          <mxGeometry x="-705" y="645" width="100" height="50" as="geometry" />
        </mxCell>
        <mxCell id="yu7Q_5mXm-o3Nk47Cqs4-49" value="resource_do" style="ellipse;whiteSpace=wrap;html=1;" parent="WIyWlLk6GJQsqaUBKTNV-1" vertex="1">
          <mxGeometry x="-455" y="675" width="100" height="50" as="geometry" />
        </mxCell>
        <mxCell id="yu7Q_5mXm-o3Nk47Cqs4-52" value="&lt;i&gt;users&lt;/i&gt;" style="rounded=0;whiteSpace=wrap;html=1;" parent="WIyWlLk6GJQsqaUBKTNV-1" vertex="1">
          <mxGeometry x="-220" y="600" width="80" height="40" as="geometry" />
        </mxCell>
        <mxCell id="yu7Q_5mXm-o3Nk47Cqs4-53" value="avatar" style="ellipse;whiteSpace=wrap;html=1;" parent="WIyWlLk6GJQsqaUBKTNV-1" vertex="1">
          <mxGeometry x="-230" y="520" width="100" height="50" as="geometry" />
        </mxCell>
        <mxCell id="yu7Q_5mXm-o3Nk47Cqs4-54" value="email" style="ellipse;whiteSpace=wrap;html=1;" parent="WIyWlLk6GJQsqaUBKTNV-1" vertex="1">
          <mxGeometry x="-40" y="370" width="100" height="50" as="geometry" />
        </mxCell>
        <mxCell id="yu7Q_5mXm-o3Nk47Cqs4-55" value="full_name" style="ellipse;whiteSpace=wrap;html=1;" parent="WIyWlLk6GJQsqaUBKTNV-1" vertex="1">
          <mxGeometry x="-60" y="435" width="100" height="50" as="geometry" />
        </mxCell>
        <mxCell id="yu7Q_5mXm-o3Nk47Cqs4-56" value="password" style="ellipse;whiteSpace=wrap;html=1;" parent="WIyWlLk6GJQsqaUBKTNV-1" vertex="1">
          <mxGeometry x="-180" y="470" width="100" height="50" as="geometry" />
        </mxCell>
        <mxCell id="yu7Q_5mXm-o3Nk47Cqs4-57" value="username" style="ellipse;whiteSpace=wrap;html=1;" parent="WIyWlLk6GJQsqaUBKTNV-1" vertex="1">
          <mxGeometry x="-257.5" y="790" width="100" height="50" as="geometry" />
        </mxCell>
        <mxCell id="yu7Q_5mXm-o3Nk47Cqs4-59" value="" style="endArrow=none;html=1;rounded=0;entryX=0.5;entryY=1;entryDx=0;entryDy=0;exitX=1;exitY=0;exitDx=0;exitDy=0;" parent="WIyWlLk6GJQsqaUBKTNV-1" source="yu7Q_5mXm-o3Nk47Cqs4-52" target="yu7Q_5mXm-o3Nk47Cqs4-206" edge="1">
          <mxGeometry width="50" height="50" relative="1" as="geometry">
            <mxPoint x="-60" y="582.5" as="sourcePoint" />
            <mxPoint x="-10" y="532.5" as="targetPoint" />
          </mxGeometry>
        </mxCell>
        <mxCell id="yu7Q_5mXm-o3Nk47Cqs4-61" value="" style="endArrow=none;html=1;rounded=0;entryX=0.5;entryY=0;entryDx=0;entryDy=0;exitX=0.65;exitY=1;exitDx=0;exitDy=0;exitPerimeter=0;" parent="WIyWlLk6GJQsqaUBKTNV-1" source="yu7Q_5mXm-o3Nk47Cqs4-52" target="Sm3ua9VbbbEYiEAEW8gV-7" edge="1">
          <mxGeometry width="50" height="50" relative="1" as="geometry">
            <mxPoint x="-170" y="632.5" as="sourcePoint" />
            <mxPoint x="-10" y="532.5" as="targetPoint" />
          </mxGeometry>
        </mxCell>
        <mxCell id="yu7Q_5mXm-o3Nk47Cqs4-62" value="" style="endArrow=none;html=1;rounded=0;entryX=0.5;entryY=1;entryDx=0;entryDy=0;exitX=0.5;exitY=0;exitDx=0;exitDy=0;" parent="WIyWlLk6GJQsqaUBKTNV-1" source="yu7Q_5mXm-o3Nk47Cqs4-207" target="yu7Q_5mXm-o3Nk47Cqs4-52" edge="1">
          <mxGeometry width="50" height="50" relative="1" as="geometry">
            <mxPoint x="-60" y="712.5" as="sourcePoint" />
            <mxPoint x="-10" y="662.5" as="targetPoint" />
          </mxGeometry>
        </mxCell>
        <mxCell id="yu7Q_5mXm-o3Nk47Cqs4-63" value="" style="endArrow=none;html=1;rounded=0;entryX=1;entryY=0.5;entryDx=0;entryDy=0;exitX=0;exitY=0.5;exitDx=0;exitDy=0;" parent="WIyWlLk6GJQsqaUBKTNV-1" source="yu7Q_5mXm-o3Nk47Cqs4-39" target="yu7Q_5mXm-o3Nk47Cqs4-34" edge="1">
          <mxGeometry width="50" height="50" relative="1" as="geometry">
            <mxPoint x="-395" y="245" as="sourcePoint" />
            <mxPoint x="-345" y="195" as="targetPoint" />
          </mxGeometry>
        </mxCell>
        <mxCell id="yu7Q_5mXm-o3Nk47Cqs4-64" value="" style="endArrow=none;html=1;rounded=0;entryX=0;entryY=1;entryDx=0;entryDy=0;exitX=1;exitY=0.5;exitDx=0;exitDy=0;" parent="WIyWlLk6GJQsqaUBKTNV-1" source="yu7Q_5mXm-o3Nk47Cqs4-47" target="yu7Q_5mXm-o3Nk47Cqs4-34" edge="1">
          <mxGeometry width="50" height="50" relative="1" as="geometry">
            <mxPoint x="-395" y="245" as="sourcePoint" />
            <mxPoint x="-345" y="195" as="targetPoint" />
          </mxGeometry>
        </mxCell>
        <mxCell id="yu7Q_5mXm-o3Nk47Cqs4-65" value="" style="endArrow=none;html=1;rounded=0;exitX=1;exitY=0.5;exitDx=0;exitDy=0;entryX=0;entryY=1;entryDx=0;entryDy=0;" parent="WIyWlLk6GJQsqaUBKTNV-1" source="yu7Q_5mXm-o3Nk47Cqs4-42" target="yu7Q_5mXm-o3Nk47Cqs4-34" edge="1">
          <mxGeometry width="50" height="50" relative="1" as="geometry">
            <mxPoint x="-395" y="245" as="sourcePoint" />
            <mxPoint x="-650" y="590" as="targetPoint" />
          </mxGeometry>
        </mxCell>
        <mxCell id="yu7Q_5mXm-o3Nk47Cqs4-66" value="" style="endArrow=none;html=1;rounded=0;entryX=0.407;entryY=1.002;entryDx=0;entryDy=0;exitX=0.5;exitY=0;exitDx=0;exitDy=0;entryPerimeter=0;" parent="WIyWlLk6GJQsqaUBKTNV-1" source="yu7Q_5mXm-o3Nk47Cqs4-48" target="yu7Q_5mXm-o3Nk47Cqs4-34" edge="1">
          <mxGeometry width="50" height="50" relative="1" as="geometry">
            <mxPoint x="-435" y="420" as="sourcePoint" />
            <mxPoint x="-280" y="285" as="targetPoint" />
          </mxGeometry>
        </mxCell>
        <mxCell id="yu7Q_5mXm-o3Nk47Cqs4-67" value="" style="endArrow=none;html=1;rounded=0;entryX=0.607;entryY=1.044;entryDx=0;entryDy=0;exitX=0.5;exitY=0;exitDx=0;exitDy=0;entryPerimeter=0;" parent="WIyWlLk6GJQsqaUBKTNV-1" source="yu7Q_5mXm-o3Nk47Cqs4-44" target="yu7Q_5mXm-o3Nk47Cqs4-34" edge="1">
          <mxGeometry width="50" height="50" relative="1" as="geometry">
            <mxPoint x="-425" y="430" as="sourcePoint" />
            <mxPoint x="-270" y="295" as="targetPoint" />
          </mxGeometry>
        </mxCell>
        <mxCell id="yu7Q_5mXm-o3Nk47Cqs4-68" value="" style="endArrow=none;html=1;rounded=0;entryX=0.75;entryY=1;entryDx=0;entryDy=0;exitX=0.3;exitY=0;exitDx=0;exitDy=0;exitPerimeter=0;" parent="WIyWlLk6GJQsqaUBKTNV-1" source="yu7Q_5mXm-o3Nk47Cqs4-49" target="yu7Q_5mXm-o3Nk47Cqs4-34" edge="1">
          <mxGeometry width="50" height="50" relative="1" as="geometry">
            <mxPoint x="-415" y="440" as="sourcePoint" />
            <mxPoint x="-260" y="305" as="targetPoint" />
          </mxGeometry>
        </mxCell>
        <mxCell id="yu7Q_5mXm-o3Nk47Cqs4-69" value="&lt;i&gt;r&lt;/i&gt;&lt;i&gt;oles&lt;/i&gt;" style="rounded=0;whiteSpace=wrap;html=1;" parent="WIyWlLk6GJQsqaUBKTNV-1" vertex="1">
          <mxGeometry x="195" y="502.5" width="80" height="40" as="geometry" />
        </mxCell>
        <mxCell id="yu7Q_5mXm-o3Nk47Cqs4-72" value="" style="endArrow=none;html=1;rounded=0;entryX=0.5;entryY=1;entryDx=0;entryDy=0;" parent="WIyWlLk6GJQsqaUBKTNV-1" source="yu7Q_5mXm-o3Nk47Cqs4-209" target="yu7Q_5mXm-o3Nk47Cqs4-69" edge="1">
          <mxGeometry width="50" height="50" relative="1" as="geometry">
            <mxPoint x="425" y="342.5" as="sourcePoint" />
            <mxPoint x="90" y="615" as="targetPoint" />
          </mxGeometry>
        </mxCell>
        <mxCell id="yu7Q_5mXm-o3Nk47Cqs4-73" value="permission" style="ellipse;whiteSpace=wrap;html=1;" parent="WIyWlLk6GJQsqaUBKTNV-1" vertex="1">
          <mxGeometry x="175" y="437.5" width="100" height="50" as="geometry" />
        </mxCell>
        <mxCell id="yu7Q_5mXm-o3Nk47Cqs4-74" value="" style="endArrow=none;html=1;rounded=0;entryX=0.64;entryY=1.05;entryDx=0;entryDy=0;exitX=0.5;exitY=0;exitDx=0;exitDy=0;entryPerimeter=0;" parent="WIyWlLk6GJQsqaUBKTNV-1" source="yu7Q_5mXm-o3Nk47Cqs4-69" target="yu7Q_5mXm-o3Nk47Cqs4-73" edge="1">
          <mxGeometry width="50" height="50" relative="1" as="geometry">
            <mxPoint x="425" y="342.5" as="sourcePoint" />
            <mxPoint x="475" y="292.5" as="targetPoint" />
          </mxGeometry>
        </mxCell>
        <mxCell id="yu7Q_5mXm-o3Nk47Cqs4-75" value="&lt;i&gt;subscription_packages&lt;/i&gt;" style="rounded=0;whiteSpace=wrap;html=1;" parent="WIyWlLk6GJQsqaUBKTNV-1" vertex="1">
          <mxGeometry x="525" y="435" width="140" height="40" as="geometry" />
        </mxCell>
        <mxCell id="yu7Q_5mXm-o3Nk47Cqs4-76" value="" style="endArrow=none;html=1;rounded=0;entryX=0.5;entryY=1;entryDx=0;entryDy=0;exitX=0.5;exitY=0;exitDx=0;exitDy=0;" parent="WIyWlLk6GJQsqaUBKTNV-1" source="yu7Q_5mXm-o3Nk47Cqs4-46" target="yu7Q_5mXm-o3Nk47Cqs4-34" edge="1">
          <mxGeometry width="50" height="50" relative="1" as="geometry">
            <mxPoint x="-165" y="365" as="sourcePoint" />
            <mxPoint x="-115" y="315" as="targetPoint" />
          </mxGeometry>
        </mxCell>
        <mxCell id="yu7Q_5mXm-o3Nk47Cqs4-78" value="day" style="ellipse;whiteSpace=wrap;html=1;" parent="WIyWlLk6GJQsqaUBKTNV-1" vertex="1">
          <mxGeometry x="545" y="525" width="100" height="50" as="geometry" />
        </mxCell>
        <mxCell id="yu7Q_5mXm-o3Nk47Cqs4-80" value="" style="endArrow=none;html=1;rounded=0;entryX=0;entryY=1;entryDx=0;entryDy=0;exitX=0.75;exitY=0;exitDx=0;exitDy=0;" parent="WIyWlLk6GJQsqaUBKTNV-1" source="yu7Q_5mXm-o3Nk47Cqs4-75" target="Sm3ua9VbbbEYiEAEW8gV-0" edge="1">
          <mxGeometry width="50" height="50" relative="1" as="geometry">
            <mxPoint x="495" y="235" as="sourcePoint" />
            <mxPoint x="545" y="185" as="targetPoint" />
          </mxGeometry>
        </mxCell>
        <mxCell id="yu7Q_5mXm-o3Nk47Cqs4-82" value="" style="endArrow=none;html=1;rounded=0;entryX=0.5;entryY=0;entryDx=0;entryDy=0;exitX=1;exitY=1;exitDx=0;exitDy=0;" parent="WIyWlLk6GJQsqaUBKTNV-1" source="Sm3ua9VbbbEYiEAEW8gV-8" target="yu7Q_5mXm-o3Nk47Cqs4-75" edge="1">
          <mxGeometry width="50" height="50" relative="1" as="geometry">
            <mxPoint x="215" y="365" as="sourcePoint" />
            <mxPoint x="265" y="315" as="targetPoint" />
          </mxGeometry>
        </mxCell>
        <mxCell id="yu7Q_5mXm-o3Nk47Cqs4-84" value="" style="endArrow=none;html=1;rounded=0;entryX=1;entryY=0;entryDx=0;entryDy=0;exitX=1;exitY=0.5;exitDx=0;exitDy=0;" parent="WIyWlLk6GJQsqaUBKTNV-1" source="yu7Q_5mXm-o3Nk47Cqs4-75" target="yu7Q_5mXm-o3Nk47Cqs4-208" edge="1">
          <mxGeometry width="50" height="50" relative="1" as="geometry">
            <mxPoint x="215" y="365" as="sourcePoint" />
            <mxPoint x="265" y="315" as="targetPoint" />
          </mxGeometry>
        </mxCell>
        <mxCell id="yu7Q_5mXm-o3Nk47Cqs4-86" value="price" style="ellipse;whiteSpace=wrap;html=1;" parent="WIyWlLk6GJQsqaUBKTNV-1" vertex="1">
          <mxGeometry x="685" y="495" width="100" height="50" as="geometry" />
        </mxCell>
        <mxCell id="yu7Q_5mXm-o3Nk47Cqs4-87" value="" style="endArrow=none;html=1;rounded=0;entryX=0;entryY=1;entryDx=0;entryDy=0;exitX=0.5;exitY=0;exitDx=0;exitDy=0;" parent="WIyWlLk6GJQsqaUBKTNV-1" source="yu7Q_5mXm-o3Nk47Cqs4-6" target="yu7Q_5mXm-o3Nk47Cqs4-15" edge="1">
          <mxGeometry width="50" height="50" relative="1" as="geometry">
            <mxPoint x="317.5" y="245" as="sourcePoint" />
            <mxPoint x="367.5" y="195" as="targetPoint" />
          </mxGeometry>
        </mxCell>
        <mxCell id="yu7Q_5mXm-o3Nk47Cqs4-88" value="" style="endArrow=none;html=1;rounded=0;entryX=-0.01;entryY=0.668;entryDx=0;entryDy=0;exitX=0.75;exitY=0;exitDx=0;exitDy=0;entryPerimeter=0;" parent="WIyWlLk6GJQsqaUBKTNV-1" source="yu7Q_5mXm-o3Nk47Cqs4-6" target="yu7Q_5mXm-o3Nk47Cqs4-16" edge="1">
          <mxGeometry width="50" height="50" relative="1" as="geometry">
            <mxPoint x="377.5" y="255" as="sourcePoint" />
            <mxPoint x="412.5" y="188" as="targetPoint" />
          </mxGeometry>
        </mxCell>
        <mxCell id="yu7Q_5mXm-o3Nk47Cqs4-89" value="" style="endArrow=none;html=1;rounded=0;entryX=0.5;entryY=0;entryDx=0;entryDy=0;exitX=0.25;exitY=1;exitDx=0;exitDy=0;" parent="WIyWlLk6GJQsqaUBKTNV-1" source="yu7Q_5mXm-o3Nk47Cqs4-6" target="yu7Q_5mXm-o3Nk47Cqs4-13" edge="1">
          <mxGeometry width="50" height="50" relative="1" as="geometry">
            <mxPoint x="382.5" y="135" as="sourcePoint" />
            <mxPoint x="377.5" y="68" as="targetPoint" />
          </mxGeometry>
        </mxCell>
        <mxCell id="yu7Q_5mXm-o3Nk47Cqs4-91" value="" style="endArrow=none;html=1;rounded=0;entryX=0.01;entryY=0.31;entryDx=0;entryDy=0;exitX=1;exitY=1;exitDx=0;exitDy=0;entryPerimeter=0;" parent="WIyWlLk6GJQsqaUBKTNV-1" source="yu7Q_5mXm-o3Nk47Cqs4-6" target="yu7Q_5mXm-o3Nk47Cqs4-14" edge="1">
          <mxGeometry width="50" height="50" relative="1" as="geometry">
            <mxPoint x="352.5" y="145" as="sourcePoint" />
            <mxPoint x="-820.2000000000003" y="487.14999999999964" as="targetPoint" />
          </mxGeometry>
        </mxCell>
        <mxCell id="yu7Q_5mXm-o3Nk47Cqs4-92" value="" style="endArrow=none;html=1;rounded=0;entryX=0.5;entryY=0;entryDx=0;entryDy=0;exitX=0.5;exitY=1;exitDx=0;exitDy=0;" parent="WIyWlLk6GJQsqaUBKTNV-1" source="yu7Q_5mXm-o3Nk47Cqs4-75" target="yu7Q_5mXm-o3Nk47Cqs4-78" edge="1">
          <mxGeometry width="50" height="50" relative="1" as="geometry">
            <mxPoint x="525" y="365" as="sourcePoint" />
            <mxPoint x="575" y="315" as="targetPoint" />
          </mxGeometry>
        </mxCell>
        <mxCell id="yu7Q_5mXm-o3Nk47Cqs4-93" value="" style="endArrow=none;html=1;rounded=0;entryX=0.257;entryY=0.085;entryDx=0;entryDy=0;entryPerimeter=0;" parent="WIyWlLk6GJQsqaUBKTNV-1" target="yu7Q_5mXm-o3Nk47Cqs4-86" edge="1">
          <mxGeometry width="50" height="50" relative="1" as="geometry">
            <mxPoint x="665" y="475" as="sourcePoint" />
            <mxPoint x="755" y="490" as="targetPoint" />
          </mxGeometry>
        </mxCell>
        <mxCell id="yu7Q_5mXm-o3Nk47Cqs4-118" value="&lt;p style=&quot;margin: 4.4pt 8.55pt 0.0001pt 0.15in;&quot; align=&quot;center&quot; class=&quot;MsoNormal&quot;&gt;&lt;i&gt;view_statistics&lt;/i&gt;&lt;br&gt;&lt;/p&gt;" style="rounded=0;whiteSpace=wrap;html=1;" parent="WIyWlLk6GJQsqaUBKTNV-1" vertex="1">
          <mxGeometry x="-705" y="227.5" width="120" height="40" as="geometry" />
        </mxCell>
        <mxCell id="yu7Q_5mXm-o3Nk47Cqs4-119" value="ip_address" style="ellipse;whiteSpace=wrap;html=1;" parent="WIyWlLk6GJQsqaUBKTNV-1" vertex="1">
          <mxGeometry x="-775" y="130" width="100" height="50" as="geometry" />
        </mxCell>
        <mxCell id="yu7Q_5mXm-o3Nk47Cqs4-125" value="" style="endArrow=none;html=1;rounded=0;entryX=0.5;entryY=1;entryDx=0;entryDy=0;exitX=0.25;exitY=0;exitDx=0;exitDy=0;" parent="WIyWlLk6GJQsqaUBKTNV-1" source="yu7Q_5mXm-o3Nk47Cqs4-118" target="yu7Q_5mXm-o3Nk47Cqs4-119" edge="1">
          <mxGeometry width="50" height="50" relative="1" as="geometry">
            <mxPoint x="192.5" y="25" as="sourcePoint" />
            <mxPoint x="341.5" y="-43" as="targetPoint" />
          </mxGeometry>
        </mxCell>
        <mxCell id="yu7Q_5mXm-o3Nk47Cqs4-126" value="&lt;p style=&quot;margin: 4.4pt 8.55pt 0.0001pt 11.05pt;&quot; align=&quot;center&quot; class=&quot;MsoNormal&quot;&gt;&lt;i&gt;favorites&lt;/i&gt;&lt;/p&gt;" style="rounded=0;whiteSpace=wrap;html=1;" parent="WIyWlLk6GJQsqaUBKTNV-1" vertex="1">
          <mxGeometry x="-380" y="920" width="100" height="40" as="geometry" />
        </mxCell>
        <mxCell id="yu7Q_5mXm-o3Nk47Cqs4-134" value="" style="endArrow=none;html=1;rounded=0;entryX=0.022;entryY=0.26;entryDx=0;entryDy=0;exitX=1;exitY=0.5;exitDx=0;exitDy=0;entryPerimeter=0;" parent="WIyWlLk6GJQsqaUBKTNV-1" source="yu7Q_5mXm-o3Nk47Cqs4-126" target="yu7Q_5mXm-o3Nk47Cqs4-205" edge="1">
          <mxGeometry width="50" height="50" relative="1" as="geometry">
            <mxPoint x="220" y="380" as="sourcePoint" />
            <mxPoint x="270" y="330" as="targetPoint" />
            <Array as="points" />
          </mxGeometry>
        </mxCell>
        <mxCell id="yu7Q_5mXm-o3Nk47Cqs4-136" value="" style="endArrow=none;html=1;rounded=0;entryX=0;entryY=1;entryDx=0;entryDy=0;exitX=1;exitY=0.5;exitDx=0;exitDy=0;" parent="WIyWlLk6GJQsqaUBKTNV-1" source="yu7Q_5mXm-o3Nk47Cqs4-126" target="yu7Q_5mXm-o3Nk47Cqs4-213" edge="1">
          <mxGeometry width="50" height="50" relative="1" as="geometry">
            <mxPoint x="220" y="380" as="sourcePoint" />
            <mxPoint x="270" y="330" as="targetPoint" />
          </mxGeometry>
        </mxCell>
        <mxCell id="yu7Q_5mXm-o3Nk47Cqs4-145" value="last_second" style="ellipse;whiteSpace=wrap;html=1;" parent="WIyWlLk6GJQsqaUBKTNV-1" vertex="1">
          <mxGeometry x="-700" y="845" width="100" height="50" as="geometry" />
        </mxCell>
        <mxCell id="yu7Q_5mXm-o3Nk47Cqs4-146" value="" style="endArrow=none;html=1;rounded=0;entryX=0;entryY=0.5;entryDx=0;entryDy=0;exitX=1;exitY=0.5;exitDx=0;exitDy=0;" parent="WIyWlLk6GJQsqaUBKTNV-1" source="yu7Q_5mXm-o3Nk47Cqs4-138" target="yu7Q_5mXm-o3Nk47Cqs4-145" edge="1">
          <mxGeometry width="50" height="50" relative="1" as="geometry">
            <mxPoint x="220" y="380" as="sourcePoint" />
            <mxPoint x="270" y="330" as="targetPoint" />
          </mxGeometry>
        </mxCell>
        <mxCell id="yu7Q_5mXm-o3Nk47Cqs4-147" value="" style="endArrow=none;html=1;rounded=0;exitX=0.5;exitY=1;exitDx=0;exitDy=0;entryX=0.25;entryY=1;entryDx=0;entryDy=0;" parent="WIyWlLk6GJQsqaUBKTNV-1" source="Sm3ua9VbbbEYiEAEW8gV-2" target="yu7Q_5mXm-o3Nk47Cqs4-138" edge="1">
          <mxGeometry width="50" height="50" relative="1" as="geometry">
            <mxPoint x="426" y="138" as="sourcePoint" />
            <mxPoint x="530" y="-40" as="targetPoint" />
          </mxGeometry>
        </mxCell>
        <mxCell id="yu7Q_5mXm-o3Nk47Cqs4-138" value="&lt;p style=&quot;margin: 12.1pt 8.55pt 0.0001pt 10.75pt;&quot; align=&quot;center&quot; class=&quot;MsoNormal&quot;&gt;&lt;i&gt;log_histories&lt;/i&gt;&lt;/p&gt;" style="rounded=0;whiteSpace=wrap;html=1;" parent="WIyWlLk6GJQsqaUBKTNV-1" vertex="1">
          <mxGeometry x="-890" y="845" width="100" height="40" as="geometry" />
        </mxCell>
        <mxCell id="yu7Q_5mXm-o3Nk47Cqs4-151" value="&lt;p style=&quot;margin: 12.1pt 8.55pt 0.0001pt 10.75pt;&quot; align=&quot;center&quot; class=&quot;MsoNormal&quot;&gt;&lt;i&gt;comments&lt;/i&gt;&lt;br&gt;&lt;/p&gt;" style="rounded=0;whiteSpace=wrap;html=1;" parent="WIyWlLk6GJQsqaUBKTNV-1" vertex="1">
          <mxGeometry x="-410" y="390" width="100" height="40" as="geometry" />
        </mxCell>
        <mxCell id="yu7Q_5mXm-o3Nk47Cqs4-154" value="content" style="ellipse;whiteSpace=wrap;html=1;" parent="WIyWlLk6GJQsqaUBKTNV-1" vertex="1">
          <mxGeometry x="-300" y="340" width="100" height="50" as="geometry" />
        </mxCell>
        <mxCell id="yu7Q_5mXm-o3Nk47Cqs4-155" value="" style="endArrow=none;html=1;rounded=0;entryX=1;entryY=0;entryDx=0;entryDy=0;exitX=0.06;exitY=0.72;exitDx=0;exitDy=0;exitPerimeter=0;" parent="WIyWlLk6GJQsqaUBKTNV-1" source="yu7Q_5mXm-o3Nk47Cqs4-154" target="yu7Q_5mXm-o3Nk47Cqs4-151" edge="1">
          <mxGeometry width="50" height="50" relative="1" as="geometry">
            <mxPoint x="-142.5" y="285" as="sourcePoint" />
            <mxPoint x="-92.5" y="235" as="targetPoint" />
          </mxGeometry>
        </mxCell>
        <mxCell id="yu7Q_5mXm-o3Nk47Cqs4-156" value="" style="endArrow=none;html=1;rounded=0;exitX=0.5;exitY=1;exitDx=0;exitDy=0;entryX=0.5;entryY=0;entryDx=0;entryDy=0;" parent="WIyWlLk6GJQsqaUBKTNV-1" source="yu7Q_5mXm-o3Nk47Cqs4-211" target="yu7Q_5mXm-o3Nk47Cqs4-151" edge="1">
          <mxGeometry width="50" height="50" relative="1" as="geometry">
            <mxPoint x="-142.5" y="285" as="sourcePoint" />
            <mxPoint x="-162.5" y="-5" as="targetPoint" />
          </mxGeometry>
        </mxCell>
        <mxCell id="yu7Q_5mXm-o3Nk47Cqs4-162" value="&lt;p style=&quot;margin: 4.4pt 8.55pt 0.0001pt 11.05pt;&quot; align=&quot;center&quot; class=&quot;MsoNormal&quot;&gt;&lt;i&gt;email_confirmation&lt;/i&gt;&lt;br&gt;&lt;/p&gt;" style="rounded=0;whiteSpace=wrap;html=1;" parent="WIyWlLk6GJQsqaUBKTNV-1" vertex="1">
          <mxGeometry x="-5" y="300" width="120" height="40" as="geometry" />
        </mxCell>
        <mxCell id="yu7Q_5mXm-o3Nk47Cqs4-164" value="expired_date" style="ellipse;whiteSpace=wrap;html=1;" parent="WIyWlLk6GJQsqaUBKTNV-1" vertex="1">
          <mxGeometry x="600" y="980" width="100" height="50" as="geometry" />
        </mxCell>
        <mxCell id="yu7Q_5mXm-o3Nk47Cqs4-165" value="confirmation_type" style="ellipse;whiteSpace=wrap;html=1;" parent="WIyWlLk6GJQsqaUBKTNV-1" vertex="1">
          <mxGeometry x="-95" y="235" width="110" height="50" as="geometry" />
        </mxCell>
        <mxCell id="yu7Q_5mXm-o3Nk47Cqs4-166" value="otp_code" style="ellipse;whiteSpace=wrap;html=1;" parent="WIyWlLk6GJQsqaUBKTNV-1" vertex="1">
          <mxGeometry x="5" y="210" width="100" height="50" as="geometry" />
        </mxCell>
        <mxCell id="yu7Q_5mXm-o3Nk47Cqs4-167" value="status" style="ellipse;whiteSpace=wrap;html=1;" parent="WIyWlLk6GJQsqaUBKTNV-1" vertex="1">
          <mxGeometry x="100" y="230" width="100" height="50" as="geometry" />
        </mxCell>
        <mxCell id="yu7Q_5mXm-o3Nk47Cqs4-169" value="" style="endArrow=none;html=1;rounded=0;entryX=0.5;entryY=1;entryDx=0;entryDy=0;exitX=0.5;exitY=0;exitDx=0;exitDy=0;" parent="WIyWlLk6GJQsqaUBKTNV-1" source="yu7Q_5mXm-o3Nk47Cqs4-162" target="yu7Q_5mXm-o3Nk47Cqs4-166" edge="1">
          <mxGeometry width="50" height="50" relative="1" as="geometry">
            <mxPoint x="55" y="290" as="sourcePoint" />
            <mxPoint x="-5" y="210" as="targetPoint" />
          </mxGeometry>
        </mxCell>
        <mxCell id="yu7Q_5mXm-o3Nk47Cqs4-170" value="" style="endArrow=none;html=1;rounded=0;entryX=0;entryY=1;entryDx=0;entryDy=0;exitX=0.75;exitY=0;exitDx=0;exitDy=0;" parent="WIyWlLk6GJQsqaUBKTNV-1" source="yu7Q_5mXm-o3Nk47Cqs4-162" target="yu7Q_5mXm-o3Nk47Cqs4-167" edge="1">
          <mxGeometry width="50" height="50" relative="1" as="geometry">
            <mxPoint x="65" y="310" as="sourcePoint" />
            <mxPoint x="95" y="160" as="targetPoint" />
          </mxGeometry>
        </mxCell>
        <mxCell id="yu7Q_5mXm-o3Nk47Cqs4-172" value="" style="endArrow=none;html=1;rounded=0;entryX=1;entryY=1;entryDx=0;entryDy=0;exitX=0;exitY=0.25;exitDx=0;exitDy=0;" parent="WIyWlLk6GJQsqaUBKTNV-1" source="yu7Q_5mXm-o3Nk47Cqs4-162" target="yu7Q_5mXm-o3Nk47Cqs4-165" edge="1">
          <mxGeometry width="50" height="50" relative="1" as="geometry">
            <mxPoint x="75" y="320" as="sourcePoint" />
            <mxPoint x="105" y="170" as="targetPoint" />
          </mxGeometry>
        </mxCell>
        <mxCell id="yu7Q_5mXm-o3Nk47Cqs4-173" value="" style="endArrow=none;html=1;rounded=0;entryX=0.25;entryY=1;entryDx=0;entryDy=0;exitX=0.5;exitY=0;exitDx=0;exitDy=0;" parent="WIyWlLk6GJQsqaUBKTNV-1" source="yu7Q_5mXm-o3Nk47Cqs4-54" target="yu7Q_5mXm-o3Nk47Cqs4-162" edge="1">
          <mxGeometry width="50" height="50" relative="1" as="geometry">
            <mxPoint x="85" y="330" as="sourcePoint" />
            <mxPoint x="115" y="180" as="targetPoint" />
          </mxGeometry>
        </mxCell>
        <mxCell id="yu7Q_5mXm-o3Nk47Cqs4-175" value="" style="endArrow=none;html=1;rounded=0;entryX=0;entryY=0;entryDx=0;entryDy=0;exitX=0.7;exitY=1;exitDx=0;exitDy=0;exitPerimeter=0;" parent="WIyWlLk6GJQsqaUBKTNV-1" source="Sm3ua9VbbbEYiEAEW8gV-9" target="yu7Q_5mXm-o3Nk47Cqs4-52" edge="1">
          <mxGeometry width="50" height="50" relative="1" as="geometry">
            <mxPoint x="-30" y="612.5" as="sourcePoint" />
            <mxPoint x="20" y="562.5" as="targetPoint" />
            <Array as="points">
              <mxPoint x="-230" y="530" />
              <mxPoint x="-240" y="560" />
            </Array>
          </mxGeometry>
        </mxCell>
        <mxCell id="yu7Q_5mXm-o3Nk47Cqs4-176" value="" style="endArrow=none;html=1;rounded=0;entryX=0.25;entryY=0;entryDx=0;entryDy=0;exitX=0.5;exitY=1;exitDx=0;exitDy=0;" parent="WIyWlLk6GJQsqaUBKTNV-1" source="yu7Q_5mXm-o3Nk47Cqs4-53" target="yu7Q_5mXm-o3Nk47Cqs4-52" edge="1">
          <mxGeometry width="50" height="50" relative="1" as="geometry">
            <mxPoint x="-384" y="503.5" as="sourcePoint" />
            <mxPoint x="-170" y="602.5" as="targetPoint" />
          </mxGeometry>
        </mxCell>
        <mxCell id="yu7Q_5mXm-o3Nk47Cqs4-177" value="" style="endArrow=none;html=1;rounded=0;entryX=1;entryY=0;entryDx=0;entryDy=0;exitX=0;exitY=1;exitDx=0;exitDy=0;" parent="WIyWlLk6GJQsqaUBKTNV-1" source="yu7Q_5mXm-o3Nk47Cqs4-55" target="yu7Q_5mXm-o3Nk47Cqs4-52" edge="1">
          <mxGeometry width="50" height="50" relative="1" as="geometry">
            <mxPoint x="11" y="487" as="sourcePoint" />
            <mxPoint x="20" y="562.5" as="targetPoint" />
          </mxGeometry>
        </mxCell>
        <mxCell id="yu7Q_5mXm-o3Nk47Cqs4-178" value="" style="endArrow=none;html=1;rounded=0;exitX=0.6;exitY=1.05;exitDx=0;exitDy=0;entryX=0.75;entryY=0;entryDx=0;entryDy=0;exitPerimeter=0;" parent="WIyWlLk6GJQsqaUBKTNV-1" source="yu7Q_5mXm-o3Nk47Cqs4-56" target="yu7Q_5mXm-o3Nk47Cqs4-52" edge="1">
          <mxGeometry width="50" height="50" relative="1" as="geometry">
            <mxPoint x="-400" y="662.5" as="sourcePoint" />
            <mxPoint x="-180" y="632.5" as="targetPoint" />
          </mxGeometry>
        </mxCell>
        <mxCell id="yu7Q_5mXm-o3Nk47Cqs4-179" value="" style="endArrow=none;html=1;rounded=0;entryX=0.5;entryY=1;entryDx=0;entryDy=0;exitX=0.5;exitY=0;exitDx=0;exitDy=0;" parent="WIyWlLk6GJQsqaUBKTNV-1" source="yu7Q_5mXm-o3Nk47Cqs4-57" target="yu7Q_5mXm-o3Nk47Cqs4-52" edge="1">
          <mxGeometry width="50" height="50" relative="1" as="geometry">
            <mxPoint x="-390" y="672.5" as="sourcePoint" />
            <mxPoint x="-160" y="642.5" as="targetPoint" />
          </mxGeometry>
        </mxCell>
        <mxCell id="yu7Q_5mXm-o3Nk47Cqs4-180" value="id" style="ellipse;whiteSpace=wrap;html=1;" parent="WIyWlLk6GJQsqaUBKTNV-1" vertex="1">
          <mxGeometry x="-115" y="320" width="90" height="50" as="geometry" />
        </mxCell>
        <mxCell id="yu7Q_5mXm-o3Nk47Cqs4-181" value="" style="endArrow=none;html=1;rounded=0;entryX=0;entryY=0.75;entryDx=0;entryDy=0;exitX=1;exitY=0.5;exitDx=0;exitDy=0;" parent="WIyWlLk6GJQsqaUBKTNV-1" source="yu7Q_5mXm-o3Nk47Cqs4-180" target="yu7Q_5mXm-o3Nk47Cqs4-162" edge="1">
          <mxGeometry width="50" height="50" relative="1" as="geometry">
            <mxPoint x="455" y="500" as="sourcePoint" />
            <mxPoint x="505" y="450" as="targetPoint" />
          </mxGeometry>
        </mxCell>
        <mxCell id="yu7Q_5mXm-o3Nk47Cqs4-182" value="&lt;p style=&quot;margin: 12.1pt 8.55pt 0.0001pt 10.75pt;&quot; align=&quot;center&quot; class=&quot;MsoNormal&quot;&gt;&lt;i&gt;user_premiums&lt;/i&gt;&lt;br&gt;&lt;/p&gt;" style="rounded=0;whiteSpace=wrap;html=1;" parent="WIyWlLk6GJQsqaUBKTNV-1" vertex="1">
          <mxGeometry x="410" y="1040" width="120" height="40" as="geometry" />
        </mxCell>
        <mxCell id="yu7Q_5mXm-o3Nk47Cqs4-184" value="" style="endArrow=none;html=1;rounded=0;entryX=0;entryY=1;entryDx=0;entryDy=0;" parent="WIyWlLk6GJQsqaUBKTNV-1" target="yu7Q_5mXm-o3Nk47Cqs4-164" edge="1">
          <mxGeometry width="50" height="50" relative="1" as="geometry">
            <mxPoint x="530" y="1040" as="sourcePoint" />
            <mxPoint x="840" y="1050" as="targetPoint" />
          </mxGeometry>
        </mxCell>
        <mxCell id="yu7Q_5mXm-o3Nk47Cqs4-186" value="subscribe_date" style="ellipse;whiteSpace=wrap;html=1;" parent="WIyWlLk6GJQsqaUBKTNV-1" vertex="1">
          <mxGeometry x="485" y="1130" width="100" height="50" as="geometry" />
        </mxCell>
        <mxCell id="yu7Q_5mXm-o3Nk47Cqs4-188" value="" style="endArrow=none;html=1;rounded=0;entryX=0.75;entryY=1;entryDx=0;entryDy=0;exitX=0.5;exitY=0;exitDx=0;exitDy=0;" parent="WIyWlLk6GJQsqaUBKTNV-1" source="yu7Q_5mXm-o3Nk47Cqs4-186" target="yu7Q_5mXm-o3Nk47Cqs4-182" edge="1">
          <mxGeometry width="50" height="50" relative="1" as="geometry">
            <mxPoint x="490" y="1120" as="sourcePoint" />
            <mxPoint x="50" y="1120" as="targetPoint" />
          </mxGeometry>
        </mxCell>
        <mxCell id="yu7Q_5mXm-o3Nk47Cqs4-194" value="create_at" style="ellipse;whiteSpace=wrap;html=1;" parent="WIyWlLk6GJQsqaUBKTNV-1" vertex="1">
          <mxGeometry x="-175" y="270" width="100" height="50" as="geometry" />
        </mxCell>
        <mxCell id="yu7Q_5mXm-o3Nk47Cqs4-195" value="" style="endArrow=none;html=1;rounded=0;exitX=1;exitY=0.5;exitDx=0;exitDy=0;" parent="WIyWlLk6GJQsqaUBKTNV-1" source="yu7Q_5mXm-o3Nk47Cqs4-194" edge="1">
          <mxGeometry width="50" height="50" relative="1" as="geometry">
            <mxPoint x="-45" y="385" as="sourcePoint" />
            <mxPoint x="-5" y="310" as="targetPoint" />
          </mxGeometry>
        </mxCell>
        <mxCell id="yu7Q_5mXm-o3Nk47Cqs4-196" value="id" style="ellipse;whiteSpace=wrap;html=1;" parent="WIyWlLk6GJQsqaUBKTNV-1" vertex="1">
          <mxGeometry x="-540" y="365" width="90" height="50" as="geometry" />
        </mxCell>
        <mxCell id="yu7Q_5mXm-o3Nk47Cqs4-197" value="" style="endArrow=none;html=1;rounded=0;entryX=0;entryY=0.25;entryDx=0;entryDy=0;exitX=1;exitY=0.5;exitDx=0;exitDy=0;" parent="WIyWlLk6GJQsqaUBKTNV-1" source="yu7Q_5mXm-o3Nk47Cqs4-196" target="yu7Q_5mXm-o3Nk47Cqs4-151" edge="1">
          <mxGeometry width="50" height="50" relative="1" as="geometry">
            <mxPoint x="-322.5" y="20" as="sourcePoint" />
            <mxPoint x="-252.5" y="15" as="targetPoint" />
          </mxGeometry>
        </mxCell>
        <mxCell id="yu7Q_5mXm-o3Nk47Cqs4-198" value="id" style="ellipse;whiteSpace=wrap;html=1;" parent="WIyWlLk6GJQsqaUBKTNV-1" vertex="1">
          <mxGeometry x="-780" y="930" width="90" height="50" as="geometry" />
        </mxCell>
        <mxCell id="yu7Q_5mXm-o3Nk47Cqs4-199" value="" style="endArrow=none;html=1;rounded=0;entryX=0.75;entryY=1;entryDx=0;entryDy=0;exitX=0.5;exitY=0;exitDx=0;exitDy=0;" parent="WIyWlLk6GJQsqaUBKTNV-1" source="yu7Q_5mXm-o3Nk47Cqs4-198" target="yu7Q_5mXm-o3Nk47Cqs4-138" edge="1">
          <mxGeometry width="50" height="50" relative="1" as="geometry">
            <mxPoint x="529" y="35" as="sourcePoint" />
            <mxPoint x="660" y="65" as="targetPoint" />
          </mxGeometry>
        </mxCell>
        <mxCell id="yu7Q_5mXm-o3Nk47Cqs4-200" value="id" style="ellipse;whiteSpace=wrap;html=1;" parent="WIyWlLk6GJQsqaUBKTNV-1" vertex="1">
          <mxGeometry x="-662.5" y="140" width="90" height="50" as="geometry" />
        </mxCell>
        <mxCell id="yu7Q_5mXm-o3Nk47Cqs4-201" value="" style="endArrow=none;html=1;rounded=0;entryX=0.5;entryY=1;entryDx=0;entryDy=0;exitX=0.389;exitY=0.05;exitDx=0;exitDy=0;exitPerimeter=0;" parent="WIyWlLk6GJQsqaUBKTNV-1" source="yu7Q_5mXm-o3Nk47Cqs4-118" target="yu7Q_5mXm-o3Nk47Cqs4-200" edge="1">
          <mxGeometry width="50" height="50" relative="1" as="geometry">
            <mxPoint x="312.5" y="175" as="sourcePoint" />
            <mxPoint x="362.5" y="125" as="targetPoint" />
          </mxGeometry>
        </mxCell>
        <mxCell id="yu7Q_5mXm-o3Nk47Cqs4-202" value="&lt;p style=&quot;margin: 12.1pt 8.55pt 0.0001pt 10.75pt;&quot; align=&quot;center&quot; class=&quot;MsoNormal&quot;&gt;&lt;i&gt;order_premium&lt;/i&gt;&lt;br&gt;&lt;/p&gt;" style="rounded=0;whiteSpace=wrap;html=1;" parent="WIyWlLk6GJQsqaUBKTNV-1" vertex="1">
          <mxGeometry x="515" y="721.25" width="120" height="40" as="geometry" />
        </mxCell>
        <mxCell id="yu7Q_5mXm-o3Nk47Cqs4-203" value="id" style="ellipse;whiteSpace=wrap;html=1;" parent="WIyWlLk6GJQsqaUBKTNV-1" vertex="1">
          <mxGeometry x="450" y="790" width="90" height="50" as="geometry" />
        </mxCell>
        <mxCell id="yu7Q_5mXm-o3Nk47Cqs4-204" value="create_at" style="ellipse;whiteSpace=wrap;html=1;" parent="WIyWlLk6GJQsqaUBKTNV-1" vertex="1">
          <mxGeometry x="685" y="803.75" width="100" height="50" as="geometry" />
        </mxCell>
        <mxCell id="yu7Q_5mXm-o3Nk47Cqs4-205" value="id" style="ellipse;whiteSpace=wrap;html=1;" parent="WIyWlLk6GJQsqaUBKTNV-1" vertex="1">
          <mxGeometry x="-245" y="935" width="90" height="50" as="geometry" />
        </mxCell>
        <mxCell id="yu7Q_5mXm-o3Nk47Cqs4-206" value="create_at" style="ellipse;whiteSpace=wrap;html=1;" parent="WIyWlLk6GJQsqaUBKTNV-1" vertex="1">
          <mxGeometry x="-95" y="505" width="100" height="50" as="geometry" />
        </mxCell>
        <mxCell id="yu7Q_5mXm-o3Nk47Cqs4-207" value="enable" style="ellipse;whiteSpace=wrap;html=1;" parent="WIyWlLk6GJQsqaUBKTNV-1" vertex="1">
          <mxGeometry x="-310" y="731.25" width="100" height="50" as="geometry" />
        </mxCell>
        <mxCell id="yu7Q_5mXm-o3Nk47Cqs4-208" value="name" style="ellipse;whiteSpace=wrap;html=1;" parent="WIyWlLk6GJQsqaUBKTNV-1" vertex="1">
          <mxGeometry x="725" y="445" width="70" height="45" as="geometry" />
        </mxCell>
        <mxCell id="yu7Q_5mXm-o3Nk47Cqs4-209" value="id" style="ellipse;whiteSpace=wrap;html=1;" parent="WIyWlLk6GJQsqaUBKTNV-1" vertex="1">
          <mxGeometry x="190" y="560" width="90" height="50" as="geometry" />
        </mxCell>
        <mxCell id="yu7Q_5mXm-o3Nk47Cqs4-211" value="create_at" style="ellipse;whiteSpace=wrap;html=1;" parent="WIyWlLk6GJQsqaUBKTNV-1" vertex="1">
          <mxGeometry x="-500" y="315" width="100" height="50" as="geometry" />
        </mxCell>
        <mxCell id="yu7Q_5mXm-o3Nk47Cqs4-213" value="create_at" style="ellipse;whiteSpace=wrap;html=1;" parent="WIyWlLk6GJQsqaUBKTNV-1" vertex="1">
          <mxGeometry x="-240" y="860" width="100" height="50" as="geometry" />
        </mxCell>
        <mxCell id="yu7Q_5mXm-o3Nk47Cqs4-214" value="id" style="ellipse;whiteSpace=wrap;html=1;" parent="WIyWlLk6GJQsqaUBKTNV-1" vertex="1">
          <mxGeometry x="455" y="950" width="90" height="50" as="geometry" />
        </mxCell>
        <mxCell id="yu7Q_5mXm-o3Nk47Cqs4-215" value="" style="endArrow=none;html=1;rounded=0;entryX=0.5;entryY=0;entryDx=0;entryDy=0;exitX=0.5;exitY=1;exitDx=0;exitDy=0;" parent="WIyWlLk6GJQsqaUBKTNV-1" source="yu7Q_5mXm-o3Nk47Cqs4-214" target="yu7Q_5mXm-o3Nk47Cqs4-182" edge="1">
          <mxGeometry width="50" height="50" relative="1" as="geometry">
            <mxPoint x="250" y="1370" as="sourcePoint" />
            <mxPoint x="300" y="1320" as="targetPoint" />
          </mxGeometry>
        </mxCell>
        <mxCell id="yu7Q_5mXm-o3Nk47Cqs4-216" value="description" style="ellipse;whiteSpace=wrap;html=1;" parent="WIyWlLk6GJQsqaUBKTNV-1" vertex="1">
          <mxGeometry x="535" y="870" width="100" height="50" as="geometry" />
        </mxCell>
        <mxCell id="yu7Q_5mXm-o3Nk47Cqs4-217" value="method" style="ellipse;whiteSpace=wrap;html=1;" parent="WIyWlLk6GJQsqaUBKTNV-1" vertex="1">
          <mxGeometry x="485" y="601.25" width="100" height="50" as="geometry" />
        </mxCell>
        <mxCell id="yu7Q_5mXm-o3Nk47Cqs4-218" value="status" style="ellipse;whiteSpace=wrap;html=1;" parent="WIyWlLk6GJQsqaUBKTNV-1" vertex="1">
          <mxGeometry x="625" y="591.25" width="100" height="50" as="geometry" />
        </mxCell>
        <mxCell id="yu7Q_5mXm-o3Nk47Cqs4-222" value="" style="endArrow=none;html=1;rounded=0;entryX=0;entryY=1;entryDx=0;entryDy=0;exitX=0.75;exitY=0;exitDx=0;exitDy=0;" parent="WIyWlLk6GJQsqaUBKTNV-1" source="yu7Q_5mXm-o3Nk47Cqs4-202" target="yu7Q_5mXm-o3Nk47Cqs4-218" edge="1">
          <mxGeometry width="50" height="50" relative="1" as="geometry">
            <mxPoint x="150" y="-260" as="sourcePoint" />
            <mxPoint x="200" y="-310" as="targetPoint" />
          </mxGeometry>
        </mxCell>
        <mxCell id="yu7Q_5mXm-o3Nk47Cqs4-223" value="" style="endArrow=none;html=1;rounded=0;entryX=0.5;entryY=1;entryDx=0;entryDy=0;exitX=0.5;exitY=0;exitDx=0;exitDy=0;" parent="WIyWlLk6GJQsqaUBKTNV-1" source="yu7Q_5mXm-o3Nk47Cqs4-202" target="yu7Q_5mXm-o3Nk47Cqs4-217" edge="1">
          <mxGeometry width="50" height="50" relative="1" as="geometry">
            <mxPoint x="70" y="-340" as="sourcePoint" />
            <mxPoint x="134" y="-428" as="targetPoint" />
          </mxGeometry>
        </mxCell>
        <mxCell id="yu7Q_5mXm-o3Nk47Cqs4-224" value="" style="endArrow=none;html=1;rounded=0;entryX=0.34;entryY=-0.042;entryDx=0;entryDy=0;exitX=1;exitY=1;exitDx=0;exitDy=0;entryPerimeter=0;" parent="WIyWlLk6GJQsqaUBKTNV-1" source="yu7Q_5mXm-o3Nk47Cqs4-202" target="yu7Q_5mXm-o3Nk47Cqs4-204" edge="1">
          <mxGeometry width="50" height="50" relative="1" as="geometry">
            <mxPoint x="80" y="-330" as="sourcePoint" />
            <mxPoint x="144" y="-418" as="targetPoint" />
          </mxGeometry>
        </mxCell>
        <mxCell id="yu7Q_5mXm-o3Nk47Cqs4-225" value="" style="endArrow=none;html=1;rounded=0;entryX=1;entryY=0.5;entryDx=0;entryDy=0;exitX=0.426;exitY=1.099;exitDx=0;exitDy=0;exitPerimeter=0;" parent="WIyWlLk6GJQsqaUBKTNV-1" source="yu7Q_5mXm-o3Nk47Cqs4-202" target="yu7Q_5mXm-o3Nk47Cqs4-203" edge="1">
          <mxGeometry width="50" height="50" relative="1" as="geometry">
            <mxPoint x="90" y="-320" as="sourcePoint" />
            <mxPoint x="154" y="-408" as="targetPoint" />
          </mxGeometry>
        </mxCell>
        <mxCell id="yu7Q_5mXm-o3Nk47Cqs4-226" value="" style="endArrow=none;html=1;rounded=0;entryX=0;entryY=0;entryDx=0;entryDy=0;exitX=0.5;exitY=1;exitDx=0;exitDy=0;" parent="WIyWlLk6GJQsqaUBKTNV-1" source="yu7Q_5mXm-o3Nk47Cqs4-202" target="yu7Q_5mXm-o3Nk47Cqs4-216" edge="1">
          <mxGeometry width="50" height="50" relative="1" as="geometry">
            <mxPoint x="100" y="-310" as="sourcePoint" />
            <mxPoint x="164" y="-398" as="targetPoint" />
          </mxGeometry>
        </mxCell>
        <mxCell id="yu7Q_5mXm-o3Nk47Cqs4-227" value="&lt;p style=&quot;margin: 12.1pt 8.55pt 0.0001pt 11pt;&quot; align=&quot;center&quot; class=&quot;MsoNormal&quot;&gt;&lt;i&gt;gift_codes&lt;/i&gt;&lt;/p&gt;" style="rounded=0;whiteSpace=wrap;html=1;" parent="WIyWlLk6GJQsqaUBKTNV-1" vertex="1">
          <mxGeometry x="445" y="217.5" width="120" height="50" as="geometry" />
        </mxCell>
        <mxCell id="yu7Q_5mXm-o3Nk47Cqs4-228" value="id" style="ellipse;whiteSpace=wrap;html=1;" parent="WIyWlLk6GJQsqaUBKTNV-1" vertex="1">
          <mxGeometry x="490" y="90" width="90" height="50" as="geometry" />
        </mxCell>
        <mxCell id="yu7Q_5mXm-o3Nk47Cqs4-229" value="create_at" style="ellipse;whiteSpace=wrap;html=1;" parent="WIyWlLk6GJQsqaUBKTNV-1" vertex="1">
          <mxGeometry x="560" y="140" width="100" height="50" as="geometry" />
        </mxCell>
        <mxCell id="yu7Q_5mXm-o3Nk47Cqs4-231" value="redemption_code" style="ellipse;whiteSpace=wrap;html=1;" parent="WIyWlLk6GJQsqaUBKTNV-1" vertex="1">
          <mxGeometry x="315" y="155" width="125" height="50" as="geometry" />
        </mxCell>
        <mxCell id="yu7Q_5mXm-o3Nk47Cqs4-232" value="" style="endArrow=none;html=1;rounded=0;exitX=0.881;exitY=0.004;exitDx=0;exitDy=0;exitPerimeter=0;" parent="WIyWlLk6GJQsqaUBKTNV-1" source="yu7Q_5mXm-o3Nk47Cqs4-227" target="yu7Q_5mXm-o3Nk47Cqs4-229" edge="1">
          <mxGeometry width="50" height="50" relative="1" as="geometry">
            <mxPoint x="490" y="-60" as="sourcePoint" />
            <mxPoint x="540" y="-110" as="targetPoint" />
          </mxGeometry>
        </mxCell>
        <mxCell id="yu7Q_5mXm-o3Nk47Cqs4-233" value="" style="endArrow=none;html=1;rounded=0;entryX=0.5;entryY=1;entryDx=0;entryDy=0;exitX=0.75;exitY=0;exitDx=0;exitDy=0;" parent="WIyWlLk6GJQsqaUBKTNV-1" source="yu7Q_5mXm-o3Nk47Cqs4-227" target="yu7Q_5mXm-o3Nk47Cqs4-228" edge="1">
          <mxGeometry width="50" height="50" relative="1" as="geometry">
            <mxPoint x="440" y="-380" as="sourcePoint" />
            <mxPoint x="543" y="-413" as="targetPoint" />
          </mxGeometry>
        </mxCell>
        <mxCell id="yu7Q_5mXm-o3Nk47Cqs4-235" value="" style="endArrow=none;html=1;rounded=0;exitX=0;exitY=0;exitDx=0;exitDy=0;entryX=0.5;entryY=1;entryDx=0;entryDy=0;" parent="WIyWlLk6GJQsqaUBKTNV-1" source="yu7Q_5mXm-o3Nk47Cqs4-227" target="yu7Q_5mXm-o3Nk47Cqs4-231" edge="1">
          <mxGeometry width="50" height="50" relative="1" as="geometry">
            <mxPoint x="511" y="-357" as="sourcePoint" />
            <mxPoint x="553" y="-403" as="targetPoint" />
          </mxGeometry>
        </mxCell>
        <mxCell id="yu7Q_5mXm-o3Nk47Cqs4-236" value="&lt;p style=&quot;margin: 12.1pt 8.55pt 0.0001pt 11pt;&quot; align=&quot;center&quot; class=&quot;MsoNormal&quot;&gt;&lt;i&gt;attemp_logs&lt;/i&gt;&lt;br&gt;&lt;/p&gt;" style="rounded=0;whiteSpace=wrap;html=1;" parent="WIyWlLk6GJQsqaUBKTNV-1" vertex="1">
          <mxGeometry y="910" width="120" height="40" as="geometry" />
        </mxCell>
        <mxCell id="yu7Q_5mXm-o3Nk47Cqs4-237" value="id" style="ellipse;whiteSpace=wrap;html=1;" parent="WIyWlLk6GJQsqaUBKTNV-1" vertex="1">
          <mxGeometry x="75" y="825" width="90" height="50" as="geometry" />
        </mxCell>
        <mxCell id="yu7Q_5mXm-o3Nk47Cqs4-238" value="create_at" style="ellipse;whiteSpace=wrap;html=1;" parent="WIyWlLk6GJQsqaUBKTNV-1" vertex="1">
          <mxGeometry x="160" y="890" width="100" height="50" as="geometry" />
        </mxCell>
        <mxCell id="yu7Q_5mXm-o3Nk47Cqs4-239" value="attemp_type" style="ellipse;whiteSpace=wrap;html=1;" parent="WIyWlLk6GJQsqaUBKTNV-1" vertex="1">
          <mxGeometry x="145" y="975" width="100" height="50" as="geometry" />
        </mxCell>
        <mxCell id="yu7Q_5mXm-o3Nk47Cqs4-240" value="ip_address" style="ellipse;whiteSpace=wrap;html=1;" parent="WIyWlLk6GJQsqaUBKTNV-1" vertex="1">
          <mxGeometry x="-25" y="995" width="100" height="50" as="geometry" />
        </mxCell>
        <mxCell id="yu7Q_5mXm-o3Nk47Cqs4-241" value="" style="endArrow=none;html=1;rounded=0;entryX=0.5;entryY=1;entryDx=0;entryDy=0;exitX=0.5;exitY=0;exitDx=0;exitDy=0;" parent="WIyWlLk6GJQsqaUBKTNV-1" source="yu7Q_5mXm-o3Nk47Cqs4-236" target="yu7Q_5mXm-o3Nk47Cqs4-237" edge="1">
          <mxGeometry width="50" height="50" relative="1" as="geometry">
            <mxPoint x="-407.5" y="697.5" as="sourcePoint" />
            <mxPoint x="-357.5" y="647.5" as="targetPoint" />
          </mxGeometry>
        </mxCell>
        <mxCell id="yu7Q_5mXm-o3Nk47Cqs4-242" value="" style="endArrow=none;html=1;rounded=0;entryX=0;entryY=1;entryDx=0;entryDy=0;exitX=1;exitY=0.25;exitDx=0;exitDy=0;" parent="WIyWlLk6GJQsqaUBKTNV-1" source="yu7Q_5mXm-o3Nk47Cqs4-236" target="yu7Q_5mXm-o3Nk47Cqs4-238" edge="1">
          <mxGeometry width="50" height="50" relative="1" as="geometry">
            <mxPoint x="132.5" y="787.5" as="sourcePoint" />
            <mxPoint x="72.5" y="727.5" as="targetPoint" />
          </mxGeometry>
        </mxCell>
        <mxCell id="yu7Q_5mXm-o3Nk47Cqs4-243" value="" style="endArrow=none;html=1;rounded=0;entryX=0;entryY=0.5;entryDx=0;entryDy=0;exitX=1;exitY=0.5;exitDx=0;exitDy=0;" parent="WIyWlLk6GJQsqaUBKTNV-1" source="yu7Q_5mXm-o3Nk47Cqs4-236" target="yu7Q_5mXm-o3Nk47Cqs4-239" edge="1">
          <mxGeometry width="50" height="50" relative="1" as="geometry">
            <mxPoint x="162.5" y="797.5" as="sourcePoint" />
            <mxPoint x="82.5" y="737.5" as="targetPoint" />
          </mxGeometry>
        </mxCell>
        <mxCell id="yu7Q_5mXm-o3Nk47Cqs4-244" value="" style="endArrow=none;html=1;rounded=0;entryX=0.5;entryY=0;entryDx=0;entryDy=0;exitX=0.5;exitY=1;exitDx=0;exitDy=0;" parent="WIyWlLk6GJQsqaUBKTNV-1" source="yu7Q_5mXm-o3Nk47Cqs4-236" target="yu7Q_5mXm-o3Nk47Cqs4-240" edge="1">
          <mxGeometry width="50" height="50" relative="1" as="geometry">
            <mxPoint x="132.5" y="822.5" as="sourcePoint" />
            <mxPoint x="92.5" y="747.5" as="targetPoint" />
          </mxGeometry>
        </mxCell>
        <mxCell id="Sm3ua9VbbbEYiEAEW8gV-0" value="description" style="ellipse;whiteSpace=wrap;html=1;" parent="WIyWlLk6GJQsqaUBKTNV-1" vertex="1">
          <mxGeometry x="655" y="355" width="100" height="50" as="geometry" />
        </mxCell>
        <mxCell id="Sm3ua9VbbbEYiEAEW8gV-2" value="create_at" style="ellipse;whiteSpace=wrap;html=1;" parent="WIyWlLk6GJQsqaUBKTNV-1" vertex="1">
          <mxGeometry x="-870" y="775" width="100" height="50" as="geometry" />
        </mxCell>
        <mxCell id="Sm3ua9VbbbEYiEAEW8gV-4" value="" style="endArrow=none;html=1;rounded=0;entryX=0.5;entryY=1;entryDx=0;entryDy=0;exitX=0.5;exitY=0;exitDx=0;exitDy=0;" parent="WIyWlLk6GJQsqaUBKTNV-1" source="yu7Q_5mXm-o3Nk47Cqs4-1" target="Sm3ua9VbbbEYiEAEW8gV-3" edge="1">
          <mxGeometry width="50" height="50" relative="1" as="geometry">
            <mxPoint x="-205" y="112.5" as="sourcePoint" />
            <mxPoint x="-894.9999999999891" y="145" as="targetPoint" />
            <Array as="points" />
          </mxGeometry>
        </mxCell>
        <mxCell id="Sm3ua9VbbbEYiEAEW8gV-3" value="create_at" style="ellipse;whiteSpace=wrap;html=1;" parent="WIyWlLk6GJQsqaUBKTNV-1" vertex="1">
          <mxGeometry x="-982.5" y="120" width="80" height="45" as="geometry" />
        </mxCell>
        <mxCell id="Sm3ua9VbbbEYiEAEW8gV-5" value="id" style="ellipse;whiteSpace=wrap;html=1;" parent="WIyWlLk6GJQsqaUBKTNV-1" vertex="1">
          <mxGeometry x="-907.5" y="90" width="90" height="50" as="geometry" />
        </mxCell>
        <mxCell id="Sm3ua9VbbbEYiEAEW8gV-6" value="create_at" style="ellipse;whiteSpace=wrap;html=1;" parent="WIyWlLk6GJQsqaUBKTNV-1" vertex="1">
          <mxGeometry x="-640" y="470" width="100" height="50" as="geometry" />
        </mxCell>
        <mxCell id="Sm3ua9VbbbEYiEAEW8gV-7" value="id" style="ellipse;whiteSpace=wrap;html=1;" parent="WIyWlLk6GJQsqaUBKTNV-1" vertex="1">
          <mxGeometry x="-180" y="740" width="90" height="50" as="geometry" />
        </mxCell>
        <mxCell id="Sm3ua9VbbbEYiEAEW8gV-8" value="enable" style="ellipse;whiteSpace=wrap;html=1;" parent="WIyWlLk6GJQsqaUBKTNV-1" vertex="1">
          <mxGeometry x="465" y="370" width="100" height="50" as="geometry" />
        </mxCell>
        <mxCell id="Sm3ua9VbbbEYiEAEW8gV-9" value="email" style="ellipse;whiteSpace=wrap;html=1;" parent="WIyWlLk6GJQsqaUBKTNV-1" vertex="1">
          <mxGeometry x="-300" y="467.5" width="100" height="50" as="geometry" />
        </mxCell>
        <mxCell id="Sm3ua9VbbbEYiEAEW8gV-12" value="id" style="ellipse;whiteSpace=wrap;html=1;" parent="WIyWlLk6GJQsqaUBKTNV-1" vertex="1">
          <mxGeometry x="-577.5" y="415" width="90" height="50" as="geometry" />
        </mxCell>
        <mxCell id="Sm3ua9VbbbEYiEAEW8gV-13" value="id" style="ellipse;whiteSpace=wrap;html=1;" parent="WIyWlLk6GJQsqaUBKTNV-1" vertex="1">
          <mxGeometry x="-1097.5" y="450" width="90" height="50" as="geometry" />
        </mxCell>
        <mxCell id="fokRJi9Z30o4S3k7J95h-2" value="movie_id" style="ellipse;whiteSpace=wrap;html=1;" parent="WIyWlLk6GJQsqaUBKTNV-1" vertex="1">
          <mxGeometry x="-982.5" y="490" width="90" height="50" as="geometry" />
        </mxCell>
        <mxCell id="fokRJi9Z30o4S3k7J95h-3" value="" style="endArrow=none;html=1;rounded=0;entryX=0.5;entryY=1;entryDx=0;entryDy=0;exitX=0.5;exitY=0;exitDx=0;exitDy=0;" parent="WIyWlLk6GJQsqaUBKTNV-1" source="fokRJi9Z30o4S3k7J95h-2" target="yu7Q_5mXm-o3Nk47Cqs4-6" edge="1">
          <mxGeometry width="50" height="50" relative="1" as="geometry">
            <mxPoint x="242.5" y="199" as="sourcePoint" />
            <mxPoint x="282.5" y="165" as="targetPoint" />
            <Array as="points" />
          </mxGeometry>
        </mxCell>
        <mxCell id="fokRJi9Z30o4S3k7J95h-4" value="Thuộc" style="rhombus;whiteSpace=wrap;html=1;" parent="WIyWlLk6GJQsqaUBKTNV-1" vertex="1">
          <mxGeometry x="-1075" y="260" width="65" height="60" as="geometry" />
        </mxCell>
        <mxCell id="fokRJi9Z30o4S3k7J95h-8" value="" style="edgeStyle=entityRelationEdgeStyle;fontSize=12;html=1;endArrow=ERoneToMany;rounded=0;exitX=0.5;exitY=1;exitDx=0;exitDy=0;entryX=0;entryY=0.25;entryDx=0;entryDy=0;" parent="WIyWlLk6GJQsqaUBKTNV-1" source="fokRJi9Z30o4S3k7J95h-4" target="yu7Q_5mXm-o3Nk47Cqs4-6" edge="1">
          <mxGeometry width="100" height="100" relative="1" as="geometry">
            <mxPoint x="-882.5" y="475" as="sourcePoint" />
            <mxPoint x="-782.5" y="375" as="targetPoint" />
          </mxGeometry>
        </mxCell>
        <mxCell id="fokRJi9Z30o4S3k7J95h-9" value="" style="edgeStyle=entityRelationEdgeStyle;fontSize=12;html=1;endArrow=ERmandOne;rounded=0;entryX=0;entryY=0.75;entryDx=0;entryDy=0;exitX=0.5;exitY=0;exitDx=0;exitDy=0;" parent="WIyWlLk6GJQsqaUBKTNV-1" source="fokRJi9Z30o4S3k7J95h-4" target="yu7Q_5mXm-o3Nk47Cqs4-1" edge="1">
          <mxGeometry width="100" height="100" relative="1" as="geometry">
            <mxPoint x="-1262.5" y="425" as="sourcePoint" />
            <mxPoint x="-1162.5" y="325" as="targetPoint" />
          </mxGeometry>
        </mxCell>
        <mxCell id="fokRJi9Z30o4S3k7J95h-10" value="name" style="ellipse;whiteSpace=wrap;html=1;" parent="WIyWlLk6GJQsqaUBKTNV-1" vertex="1">
          <mxGeometry x="-1710" y="245" width="90" height="50" as="geometry" />
        </mxCell>
        <mxCell id="fokRJi9Z30o4S3k7J95h-14" value="" style="endArrow=none;html=1;rounded=0;exitX=1;exitY=0.5;exitDx=0;exitDy=0;entryX=0;entryY=0.5;entryDx=0;entryDy=0;" parent="WIyWlLk6GJQsqaUBKTNV-1" source="fokRJi9Z30o4S3k7J95h-15" target="yu7Q_5mXm-o3Nk47Cqs4-19" edge="1">
          <mxGeometry relative="1" as="geometry">
            <mxPoint x="-1637.5" y="220" as="sourcePoint" />
            <mxPoint x="-1522.5" y="202.5" as="targetPoint" />
          </mxGeometry>
        </mxCell>
        <mxCell id="fokRJi9Z30o4S3k7J95h-15" value="create at" style="ellipse;whiteSpace=wrap;html=1;" parent="WIyWlLk6GJQsqaUBKTNV-1" vertex="1">
          <mxGeometry x="-1720" y="190" width="90" height="50" as="geometry" />
        </mxCell>
        <mxCell id="fokRJi9Z30o4S3k7J95h-16" value="" style="endArrow=none;html=1;rounded=0;entryX=0;entryY=1;entryDx=0;entryDy=0;exitX=1;exitY=0;exitDx=0;exitDy=0;" parent="WIyWlLk6GJQsqaUBKTNV-1" source="fokRJi9Z30o4S3k7J95h-10" target="yu7Q_5mXm-o3Nk47Cqs4-19" edge="1">
          <mxGeometry relative="1" as="geometry">
            <mxPoint x="-1640" y="265" as="sourcePoint" />
            <mxPoint x="-1522.5" y="210" as="targetPoint" />
          </mxGeometry>
        </mxCell>
        <mxCell id="fokRJi9Z30o4S3k7J95h-17" value="Thuộc" style="rhombus;whiteSpace=wrap;html=1;" parent="WIyWlLk6GJQsqaUBKTNV-1" vertex="1">
          <mxGeometry x="-1150" y="198.75" width="80" height="62.5" as="geometry" />
        </mxCell>
        <mxCell id="fokRJi9Z30o4S3k7J95h-18" value="" style="edgeStyle=entityRelationEdgeStyle;fontSize=12;html=1;endArrow=ERmany;rounded=0;exitX=1;exitY=0.5;exitDx=0;exitDy=0;entryX=0;entryY=0.25;entryDx=0;entryDy=0;" parent="WIyWlLk6GJQsqaUBKTNV-1" source="fokRJi9Z30o4S3k7J95h-17" target="yu7Q_5mXm-o3Nk47Cqs4-1" edge="1">
          <mxGeometry width="100" height="100" relative="1" as="geometry">
            <mxPoint x="-1010" y="223.75" as="sourcePoint" />
            <mxPoint x="-1135" y="355" as="targetPoint" />
          </mxGeometry>
        </mxCell>
        <mxCell id="fokRJi9Z30o4S3k7J95h-22" value="" style="endArrow=none;html=1;rounded=0;exitX=0.5;exitY=1;exitDx=0;exitDy=0;entryX=1;entryY=1;entryDx=0;entryDy=0;" parent="WIyWlLk6GJQsqaUBKTNV-1" source="fokRJi9Z30o4S3k7J95h-21" target="yu7Q_5mXm-o3Nk47Cqs4-34" edge="1">
          <mxGeometry relative="1" as="geometry">
            <mxPoint x="-640" y="470" as="sourcePoint" />
            <mxPoint x="-195" y="115" as="targetPoint" />
          </mxGeometry>
        </mxCell>
        <mxCell id="fokRJi9Z30o4S3k7J95h-23" value="Thuộc" style="rhombus;whiteSpace=wrap;html=1;" parent="WIyWlLk6GJQsqaUBKTNV-1" vertex="1">
          <mxGeometry x="-757.5" y="410" width="65" height="60" as="geometry" />
        </mxCell>
        <mxCell id="fokRJi9Z30o4S3k7J95h-24" value="" style="edgeStyle=entityRelationEdgeStyle;fontSize=12;html=1;endArrow=ERoneToMany;rounded=0;exitX=0.5;exitY=1;exitDx=0;exitDy=0;entryX=0;entryY=0.5;entryDx=0;entryDy=0;" parent="WIyWlLk6GJQsqaUBKTNV-1" source="fokRJi9Z30o4S3k7J95h-23" target="yu7Q_5mXm-o3Nk47Cqs4-34" edge="1">
          <mxGeometry width="100" height="100" relative="1" as="geometry">
            <mxPoint x="-970" y="600" as="sourcePoint" />
            <mxPoint x="-610" y="590" as="targetPoint" />
          </mxGeometry>
        </mxCell>
        <mxCell id="fokRJi9Z30o4S3k7J95h-21" value="series id" style="ellipse;whiteSpace=wrap;html=1;" parent="WIyWlLk6GJQsqaUBKTNV-1" vertex="1">
          <mxGeometry x="-425" y="615" width="100" height="50" as="geometry" />
        </mxCell>
        <mxCell id="fokRJi9Z30o4S3k7J95h-26" value="" style="edgeStyle=entityRelationEdgeStyle;fontSize=12;html=1;endArrow=ERmandOne;rounded=0;exitX=0;exitY=0.5;exitDx=0;exitDy=0;entryX=1;entryY=0.5;entryDx=0;entryDy=0;" parent="WIyWlLk6GJQsqaUBKTNV-1" source="fokRJi9Z30o4S3k7J95h-23" target="yu7Q_5mXm-o3Nk47Cqs4-6" edge="1">
          <mxGeometry width="100" height="100" relative="1" as="geometry">
            <mxPoint x="-970" y="480" as="sourcePoint" />
            <mxPoint x="-870" y="380" as="targetPoint" />
          </mxGeometry>
        </mxCell>
        <mxCell id="fokRJi9Z30o4S3k7J95h-27" value="user role id" style="ellipse;whiteSpace=wrap;html=1;" parent="WIyWlLk6GJQsqaUBKTNV-1" vertex="1">
          <mxGeometry x="-370" y="515" width="100" height="50" as="geometry" />
        </mxCell>
        <mxCell id="fokRJi9Z30o4S3k7J95h-28" value="" style="endArrow=none;html=1;rounded=0;entryX=0;entryY=0;entryDx=0;entryDy=0;exitX=1.03;exitY=0.68;exitDx=0;exitDy=0;exitPerimeter=0;" parent="WIyWlLk6GJQsqaUBKTNV-1" source="fokRJi9Z30o4S3k7J95h-27" target="yu7Q_5mXm-o3Nk47Cqs4-52" edge="1">
          <mxGeometry width="50" height="50" relative="1" as="geometry">
            <mxPoint x="-400" y="662.5" as="sourcePoint" />
            <mxPoint x="-170" y="632.5" as="targetPoint" />
          </mxGeometry>
        </mxCell>
        <mxCell id="fokRJi9Z30o4S3k7J95h-29" value="name" style="ellipse;whiteSpace=wrap;html=1;" parent="WIyWlLk6GJQsqaUBKTNV-1" vertex="1">
          <mxGeometry x="280" y="532.5" width="90" height="50" as="geometry" />
        </mxCell>
        <mxCell id="fokRJi9Z30o4S3k7J95h-30" value="" style="endArrow=none;html=1;rounded=0;exitX=1;exitY=1;exitDx=0;exitDy=0;entryX=0;entryY=0;entryDx=0;entryDy=0;" parent="WIyWlLk6GJQsqaUBKTNV-1" source="yu7Q_5mXm-o3Nk47Cqs4-69" target="fokRJi9Z30o4S3k7J95h-29" edge="1">
          <mxGeometry width="50" height="50" relative="1" as="geometry">
            <mxPoint x="635" y="112.5" as="sourcePoint" />
            <mxPoint x="675" y="182.5" as="targetPoint" />
          </mxGeometry>
        </mxCell>
        <mxCell id="fokRJi9Z30o4S3k7J95h-31" value="Thuộc" style="rhombus;whiteSpace=wrap;html=1;" parent="WIyWlLk6GJQsqaUBKTNV-1" vertex="1">
          <mxGeometry x="85" y="492.5" width="65" height="60" as="geometry" />
        </mxCell>
        <mxCell id="fokRJi9Z30o4S3k7J95h-34" value="Đăng nhập ứng dụng" style="rhombus;whiteSpace=wrap;html=1;" parent="WIyWlLk6GJQsqaUBKTNV-1" vertex="1">
          <mxGeometry x="-95" y="683.75" width="80" height="97.5" as="geometry" />
        </mxCell>
        <mxCell id="fokRJi9Z30o4S3k7J95h-41" value="" style="edgeStyle=entityRelationEdgeStyle;fontSize=12;html=1;endArrow=ERmany;rounded=0;exitX=0.5;exitY=1;exitDx=0;exitDy=0;entryX=0;entryY=0.75;entryDx=0;entryDy=0;" parent="WIyWlLk6GJQsqaUBKTNV-1" source="fokRJi9Z30o4S3k7J95h-34" target="yu7Q_5mXm-o3Nk47Cqs4-236" edge="1">
          <mxGeometry width="100" height="100" relative="1" as="geometry">
            <mxPoint x="-260" y="850" as="sourcePoint" />
            <mxPoint x="-85" y="860" as="targetPoint" />
          </mxGeometry>
        </mxCell>
        <mxCell id="fokRJi9Z30o4S3k7J95h-42" value="movie series id" style="ellipse;whiteSpace=wrap;html=1;" parent="WIyWlLk6GJQsqaUBKTNV-1" vertex="1">
          <mxGeometry x="-347.5" y="970" width="90" height="50" as="geometry" />
        </mxCell>
        <mxCell id="fokRJi9Z30o4S3k7J95h-43" value="" style="endArrow=none;html=1;rounded=0;entryX=0.278;entryY=0.09;entryDx=0;entryDy=0;exitX=0.75;exitY=1;exitDx=0;exitDy=0;entryPerimeter=0;" parent="WIyWlLk6GJQsqaUBKTNV-1" source="yu7Q_5mXm-o3Nk47Cqs4-126" target="fokRJi9Z30o4S3k7J95h-42" edge="1">
          <mxGeometry width="50" height="50" relative="1" as="geometry">
            <mxPoint x="-80" y="150" as="sourcePoint" />
            <mxPoint x="-75" y="210" as="targetPoint" />
            <Array as="points" />
          </mxGeometry>
        </mxCell>
        <mxCell id="fokRJi9Z30o4S3k7J95h-44" value="Lưu phim yêu thích" style="rhombus;whiteSpace=wrap;html=1;" parent="WIyWlLk6GJQsqaUBKTNV-1" vertex="1">
          <mxGeometry x="-437.5" y="795" width="90" height="67.5" as="geometry" />
        </mxCell>
        <mxCell id="fokRJi9Z30o4S3k7J95h-45" value="" style="edgeStyle=entityRelationEdgeStyle;fontSize=12;html=1;endArrow=ERone;endFill=1;rounded=0;entryX=0.25;entryY=1;entryDx=0;entryDy=0;exitX=0.5;exitY=0;exitDx=0;exitDy=0;" parent="WIyWlLk6GJQsqaUBKTNV-1" source="fokRJi9Z30o4S3k7J95h-44" target="yu7Q_5mXm-o3Nk47Cqs4-52" edge="1">
          <mxGeometry width="100" height="100" relative="1" as="geometry">
            <mxPoint x="-320" y="780" as="sourcePoint" />
            <mxPoint x="-220" y="680" as="targetPoint" />
          </mxGeometry>
        </mxCell>
        <mxCell id="fokRJi9Z30o4S3k7J95h-47" value="" style="edgeStyle=entityRelationEdgeStyle;fontSize=12;html=1;endArrow=ERone;endFill=1;rounded=0;exitX=0;exitY=0.5;exitDx=0;exitDy=0;entryX=1;entryY=0.25;entryDx=0;entryDy=0;" parent="WIyWlLk6GJQsqaUBKTNV-1" source="fokRJi9Z30o4S3k7J95h-31" target="yu7Q_5mXm-o3Nk47Cqs4-52" edge="1">
          <mxGeometry width="100" height="100" relative="1" as="geometry">
            <mxPoint x="-660" y="970" as="sourcePoint" />
            <mxPoint x="-560" y="870" as="targetPoint" />
          </mxGeometry>
        </mxCell>
        <mxCell id="fokRJi9Z30o4S3k7J95h-48" value="" style="edgeStyle=entityRelationEdgeStyle;fontSize=12;html=1;endArrow=ERone;endFill=1;rounded=0;exitX=0.5;exitY=0;exitDx=0;exitDy=0;entryX=1;entryY=0.75;entryDx=0;entryDy=0;" parent="WIyWlLk6GJQsqaUBKTNV-1" source="fokRJi9Z30o4S3k7J95h-34" target="yu7Q_5mXm-o3Nk47Cqs4-52" edge="1">
          <mxGeometry width="100" height="100" relative="1" as="geometry">
            <mxPoint x="-635" y="855" as="sourcePoint" />
            <mxPoint x="-695" y="870" as="targetPoint" />
          </mxGeometry>
        </mxCell>
        <mxCell id="fokRJi9Z30o4S3k7J95h-49" value="" style="edgeStyle=entityRelationEdgeStyle;fontSize=12;html=1;endArrow=ERone;endFill=1;rounded=0;exitX=1;exitY=0.5;exitDx=0;exitDy=0;entryX=0;entryY=0.5;entryDx=0;entryDy=0;" parent="WIyWlLk6GJQsqaUBKTNV-1" source="fokRJi9Z30o4S3k7J95h-31" target="yu7Q_5mXm-o3Nk47Cqs4-69" edge="1">
          <mxGeometry width="100" height="100" relative="1" as="geometry">
            <mxPoint x="-690" y="940" as="sourcePoint" />
            <mxPoint x="-590" y="840" as="targetPoint" />
          </mxGeometry>
        </mxCell>
        <mxCell id="fokRJi9Z30o4S3k7J95h-50" value="" style="edgeStyle=entityRelationEdgeStyle;fontSize=12;html=1;endArrow=ERmany;rounded=0;exitX=0.5;exitY=1;exitDx=0;exitDy=0;entryX=0;entryY=0.5;entryDx=0;entryDy=0;" parent="WIyWlLk6GJQsqaUBKTNV-1" source="fokRJi9Z30o4S3k7J95h-44" target="yu7Q_5mXm-o3Nk47Cqs4-126" edge="1">
          <mxGeometry width="100" height="100" relative="1" as="geometry">
            <mxPoint x="-710" y="980" as="sourcePoint" />
            <mxPoint x="-320" y="850" as="targetPoint" />
          </mxGeometry>
        </mxCell>
        <mxCell id="fokRJi9Z30o4S3k7J95h-51" value="user id" style="ellipse;whiteSpace=wrap;html=1;" parent="WIyWlLk6GJQsqaUBKTNV-1" vertex="1">
          <mxGeometry x="-680" y="910" width="100" height="50" as="geometry" />
        </mxCell>
        <mxCell id="fokRJi9Z30o4S3k7J95h-52" value="user id" style="ellipse;whiteSpace=wrap;html=1;" parent="WIyWlLk6GJQsqaUBKTNV-1" vertex="1">
          <mxGeometry x="-300" y="395" width="100" height="50" as="geometry" />
        </mxCell>
        <mxCell id="fokRJi9Z30o4S3k7J95h-53" value="episode id" style="ellipse;whiteSpace=wrap;html=1;" parent="WIyWlLk6GJQsqaUBKTNV-1" vertex="1">
          <mxGeometry x="-390" y="310" width="100" height="50" as="geometry" />
        </mxCell>
        <mxCell id="fokRJi9Z30o4S3k7J95h-54" value="" style="endArrow=none;html=1;rounded=0;exitX=0.5;exitY=1;exitDx=0;exitDy=0;entryX=0.75;entryY=0;entryDx=0;entryDy=0;" parent="WIyWlLk6GJQsqaUBKTNV-1" source="fokRJi9Z30o4S3k7J95h-53" target="yu7Q_5mXm-o3Nk47Cqs4-151" edge="1">
          <mxGeometry width="50" height="50" relative="1" as="geometry">
            <mxPoint x="-442.5" y="310" as="sourcePoint" />
            <mxPoint x="-404.5" y="360" as="targetPoint" />
          </mxGeometry>
        </mxCell>
        <mxCell id="fokRJi9Z30o4S3k7J95h-55" value="" style="endArrow=none;html=1;rounded=0;exitX=0;exitY=0.5;exitDx=0;exitDy=0;entryX=1;entryY=0.25;entryDx=0;entryDy=0;" parent="WIyWlLk6GJQsqaUBKTNV-1" source="fokRJi9Z30o4S3k7J95h-52" target="yu7Q_5mXm-o3Nk47Cqs4-151" edge="1">
          <mxGeometry width="50" height="50" relative="1" as="geometry">
            <mxPoint x="-358.5" y="314" as="sourcePoint" />
            <mxPoint x="-379.5" y="360" as="targetPoint" />
          </mxGeometry>
        </mxCell>
        <mxCell id="fokRJi9Z30o4S3k7J95h-56" value="Lưu lịch sử xem" style="rhombus;whiteSpace=wrap;html=1;" parent="WIyWlLk6GJQsqaUBKTNV-1" vertex="1">
          <mxGeometry x="-540" y="742.5" width="90" height="67.5" as="geometry" />
        </mxCell>
        <mxCell id="fokRJi9Z30o4S3k7J95h-57" value="Thuộc" style="rhombus;whiteSpace=wrap;html=1;" parent="WIyWlLk6GJQsqaUBKTNV-1" vertex="1">
          <mxGeometry x="-495" y="500" width="65" height="60" as="geometry" />
        </mxCell>
        <mxCell id="fokRJi9Z30o4S3k7J95h-59" value="" style="edgeStyle=entityRelationEdgeStyle;fontSize=12;html=1;endArrow=ERone;endFill=1;rounded=0;exitX=0;exitY=0.5;exitDx=0;exitDy=0;entryX=1;entryY=0.25;entryDx=0;entryDy=0;" parent="WIyWlLk6GJQsqaUBKTNV-1" source="fokRJi9Z30o4S3k7J95h-57" target="yu7Q_5mXm-o3Nk47Cqs4-34" edge="1">
          <mxGeometry width="100" height="100" relative="1" as="geometry">
            <mxPoint x="-290" y="450" as="sourcePoint" />
            <mxPoint x="-190" y="350" as="targetPoint" />
          </mxGeometry>
        </mxCell>
        <mxCell id="fokRJi9Z30o4S3k7J95h-60" value="" style="edgeStyle=entityRelationEdgeStyle;fontSize=12;html=1;endArrow=ERoneToMany;rounded=0;exitX=0.5;exitY=0;exitDx=0;exitDy=0;entryX=0;entryY=0.5;entryDx=0;entryDy=0;" parent="WIyWlLk6GJQsqaUBKTNV-1" source="fokRJi9Z30o4S3k7J95h-57" target="yu7Q_5mXm-o3Nk47Cqs4-151" edge="1">
          <mxGeometry width="100" height="100" relative="1" as="geometry">
            <mxPoint x="-590" y="290" as="sourcePoint" />
            <mxPoint x="-440" y="400" as="targetPoint" />
          </mxGeometry>
        </mxCell>
        <mxCell id="fokRJi9Z30o4S3k7J95h-61" value="Thuộc" style="rhombus;whiteSpace=wrap;html=1;" parent="WIyWlLk6GJQsqaUBKTNV-1" vertex="1">
          <mxGeometry x="-437.5" y="535" width="65" height="60" as="geometry" />
        </mxCell>
        <mxCell id="fokRJi9Z30o4S3k7J95h-62" value="" style="edgeStyle=entityRelationEdgeStyle;fontSize=12;html=1;endArrow=ERmandOne;rounded=0;entryX=0;entryY=0.25;entryDx=0;entryDy=0;exitX=1;exitY=0.5;exitDx=0;exitDy=0;" parent="WIyWlLk6GJQsqaUBKTNV-1" source="fokRJi9Z30o4S3k7J95h-61" target="yu7Q_5mXm-o3Nk47Cqs4-52" edge="1">
          <mxGeometry width="100" height="100" relative="1" as="geometry">
            <mxPoint x="-362" y="530" as="sourcePoint" />
            <mxPoint x="-410" y="440" as="targetPoint" />
          </mxGeometry>
        </mxCell>
        <mxCell id="fokRJi9Z30o4S3k7J95h-64" value="" style="edgeStyle=entityRelationEdgeStyle;fontSize=12;html=1;endArrow=ERoneToMany;rounded=0;exitX=0.5;exitY=0;exitDx=0;exitDy=0;entryX=0.5;entryY=1;entryDx=0;entryDy=0;" parent="WIyWlLk6GJQsqaUBKTNV-1" source="fokRJi9Z30o4S3k7J95h-61" target="yu7Q_5mXm-o3Nk47Cqs4-151" edge="1">
          <mxGeometry width="100" height="100" relative="1" as="geometry">
            <mxPoint x="-890" y="870" as="sourcePoint" />
            <mxPoint x="-790" y="770" as="targetPoint" />
          </mxGeometry>
        </mxCell>
        <mxCell id="fokRJi9Z30o4S3k7J95h-69" value="Thanh toán" style="rhombus;whiteSpace=wrap;html=1;" parent="WIyWlLk6GJQsqaUBKTNV-1" vertex="1">
          <mxGeometry x="100" y="605" width="65" height="60" as="geometry" />
        </mxCell>
        <mxCell id="fokRJi9Z30o4S3k7J95h-70" value="" style="edgeStyle=entityRelationEdgeStyle;fontSize=12;html=1;endArrow=ERoneToMany;rounded=0;exitX=1;exitY=0.5;exitDx=0;exitDy=0;entryX=0;entryY=0.75;entryDx=0;entryDy=0;" parent="WIyWlLk6GJQsqaUBKTNV-1" source="fokRJi9Z30o4S3k7J95h-69" target="yu7Q_5mXm-o3Nk47Cqs4-202" edge="1">
          <mxGeometry width="100" height="100" relative="1" as="geometry">
            <mxPoint x="270" y="920" as="sourcePoint" />
            <mxPoint x="370" y="735" as="targetPoint" />
          </mxGeometry>
        </mxCell>
        <mxCell id="fokRJi9Z30o4S3k7J95h-71" value="" style="edgeStyle=entityRelationEdgeStyle;fontSize=12;html=1;endArrow=ERone;endFill=1;rounded=0;exitX=0;exitY=0.5;exitDx=0;exitDy=0;entryX=1;entryY=0.5;entryDx=0;entryDy=0;" parent="WIyWlLk6GJQsqaUBKTNV-1" source="fokRJi9Z30o4S3k7J95h-69" target="yu7Q_5mXm-o3Nk47Cqs4-52" edge="1">
          <mxGeometry width="100" height="100" relative="1" as="geometry">
            <mxPoint x="60" y="1030" as="sourcePoint" />
            <mxPoint x="160" y="930" as="targetPoint" />
          </mxGeometry>
        </mxCell>
        <mxCell id="fokRJi9Z30o4S3k7J95h-73" value="episode id" style="ellipse;whiteSpace=wrap;html=1;" parent="WIyWlLk6GJQsqaUBKTNV-1" vertex="1">
          <mxGeometry x="-822.5" y="205" width="100" height="50" as="geometry" />
        </mxCell>
        <mxCell id="fokRJi9Z30o4S3k7J95h-74" value="" style="endArrow=none;html=1;rounded=0;entryX=0;entryY=0.5;entryDx=0;entryDy=0;exitX=1;exitY=0.5;exitDx=0;exitDy=0;" parent="WIyWlLk6GJQsqaUBKTNV-1" source="fokRJi9Z30o4S3k7J95h-73" target="yu7Q_5mXm-o3Nk47Cqs4-118" edge="1">
          <mxGeometry width="50" height="50" relative="1" as="geometry">
            <mxPoint x="159.5" y="87" as="sourcePoint" />
            <mxPoint x="167.5" y="45" as="targetPoint" />
          </mxGeometry>
        </mxCell>
        <mxCell id="fokRJi9Z30o4S3k7J95h-75" value="Lượt xem của người dùng" style="rhombus;whiteSpace=wrap;html=1;" parent="WIyWlLk6GJQsqaUBKTNV-1" vertex="1">
          <mxGeometry x="-705" y="300" width="95" height="100" as="geometry" />
        </mxCell>
        <mxCell id="fokRJi9Z30o4S3k7J95h-76" value="" style="edgeStyle=entityRelationEdgeStyle;fontSize=12;html=1;endArrow=ERone;endFill=1;rounded=0;exitX=0.5;exitY=1;exitDx=0;exitDy=0;entryX=0;entryY=0;entryDx=0;entryDy=0;" parent="WIyWlLk6GJQsqaUBKTNV-1" source="fokRJi9Z30o4S3k7J95h-75" target="yu7Q_5mXm-o3Nk47Cqs4-34" edge="1">
          <mxGeometry width="100" height="100" relative="1" as="geometry">
            <mxPoint x="-550" y="350" as="sourcePoint" />
            <mxPoint x="-450" y="250" as="targetPoint" />
          </mxGeometry>
        </mxCell>
        <mxCell id="fokRJi9Z30o4S3k7J95h-77" value="" style="edgeStyle=entityRelationEdgeStyle;fontSize=12;html=1;endArrow=ERoneToMany;rounded=0;exitX=0.5;exitY=0;exitDx=0;exitDy=0;" parent="WIyWlLk6GJQsqaUBKTNV-1" source="fokRJi9Z30o4S3k7J95h-75" target="yu7Q_5mXm-o3Nk47Cqs4-118" edge="1">
          <mxGeometry width="100" height="100" relative="1" as="geometry">
            <mxPoint x="-520" y="350" as="sourcePoint" />
            <mxPoint x="-420" y="250" as="targetPoint" />
          </mxGeometry>
        </mxCell>
        <mxCell id="fokRJi9Z30o4S3k7J95h-78" style="edgeStyle=orthogonalEdgeStyle;rounded=0;orthogonalLoop=1;jettySize=auto;html=1;exitX=0.5;exitY=1;exitDx=0;exitDy=0;" parent="WIyWlLk6GJQsqaUBKTNV-1" source="fokRJi9Z30o4S3k7J95h-73" target="fokRJi9Z30o4S3k7J95h-73" edge="1">
          <mxGeometry relative="1" as="geometry" />
        </mxCell>
        <mxCell id="fokRJi9Z30o4S3k7J95h-79" value="subscription package id" style="ellipse;whiteSpace=wrap;html=1;" parent="WIyWlLk6GJQsqaUBKTNV-1" vertex="1">
          <mxGeometry x="580" y="803.75" width="100" height="50" as="geometry" />
        </mxCell>
        <mxCell id="fokRJi9Z30o4S3k7J95h-80" value="bill id" style="ellipse;whiteSpace=wrap;html=1;" parent="WIyWlLk6GJQsqaUBKTNV-1" vertex="1">
          <mxGeometry x="660" y="671.25" width="100" height="50" as="geometry" />
        </mxCell>
        <mxCell id="fokRJi9Z30o4S3k7J95h-81" value="" style="endArrow=none;html=1;rounded=0;entryX=0;entryY=0.5;entryDx=0;entryDy=0;exitX=1;exitY=0.25;exitDx=0;exitDy=0;" parent="WIyWlLk6GJQsqaUBKTNV-1" source="yu7Q_5mXm-o3Nk47Cqs4-202" target="fokRJi9Z30o4S3k7J95h-80" edge="1">
          <mxGeometry width="50" height="50" relative="1" as="geometry">
            <mxPoint x="60" y="-290" as="sourcePoint" />
            <mxPoint x="94" y="-378" as="targetPoint" />
          </mxGeometry>
        </mxCell>
        <mxCell id="fokRJi9Z30o4S3k7J95h-82" value="" style="endArrow=none;html=1;rounded=0;entryX=0.64;entryY=0.033;entryDx=0;entryDy=0;exitX=0.75;exitY=1;exitDx=0;exitDy=0;entryPerimeter=0;" parent="WIyWlLk6GJQsqaUBKTNV-1" source="yu7Q_5mXm-o3Nk47Cqs4-202" target="fokRJi9Z30o4S3k7J95h-79" edge="1">
          <mxGeometry width="50" height="50" relative="1" as="geometry">
            <mxPoint x="670" y="728" as="sourcePoint" />
            <mxPoint x="550" y="613" as="targetPoint" />
          </mxGeometry>
        </mxCell>
        <mxCell id="fokRJi9Z30o4S3k7J95h-84" value="" style="edgeStyle=entityRelationEdgeStyle;fontSize=12;html=1;endArrow=ERmany;rounded=0;exitX=0.5;exitY=1;exitDx=0;exitDy=0;entryX=0;entryY=0;entryDx=0;entryDy=0;" parent="WIyWlLk6GJQsqaUBKTNV-1" source="fokRJi9Z30o4S3k7J95h-83" target="yu7Q_5mXm-o3Nk47Cqs4-202" edge="1">
          <mxGeometry width="100" height="100" relative="1" as="geometry">
            <mxPoint x="360" y="500" as="sourcePoint" />
            <mxPoint x="460" y="400" as="targetPoint" />
          </mxGeometry>
        </mxCell>
        <mxCell id="fokRJi9Z30o4S3k7J95h-83" value="Thuộc" style="rhombus;whiteSpace=wrap;html=1;" parent="WIyWlLk6GJQsqaUBKTNV-1" vertex="1">
          <mxGeometry x="345" y="460" width="65" height="60" as="geometry" />
        </mxCell>
        <mxCell id="fokRJi9Z30o4S3k7J95h-87" value="" style="edgeStyle=entityRelationEdgeStyle;fontSize=12;html=1;endArrow=ERmandOne;rounded=0;exitX=1;exitY=0.5;exitDx=0;exitDy=0;entryX=0;entryY=0.5;entryDx=0;entryDy=0;" parent="WIyWlLk6GJQsqaUBKTNV-1" source="fokRJi9Z30o4S3k7J95h-83" target="yu7Q_5mXm-o3Nk47Cqs4-75" edge="1">
          <mxGeometry width="100" height="100" relative="1" as="geometry">
            <mxPoint x="330" y="860" as="sourcePoint" />
            <mxPoint x="430" y="760" as="targetPoint" />
          </mxGeometry>
        </mxCell>
        <mxCell id="fokRJi9Z30o4S3k7J95h-88" value="episode id" style="ellipse;whiteSpace=wrap;html=1;" parent="WIyWlLk6GJQsqaUBKTNV-1" vertex="1">
          <mxGeometry x="-1007.5" y="895" width="90" height="50" as="geometry" />
        </mxCell>
        <mxCell id="fokRJi9Z30o4S3k7J95h-89" value="series id" style="ellipse;whiteSpace=wrap;html=1;" parent="WIyWlLk6GJQsqaUBKTNV-1" vertex="1">
          <mxGeometry x="-887.5" y="930" width="90" height="50" as="geometry" />
        </mxCell>
        <mxCell id="fokRJi9Z30o4S3k7J95h-90" value="" style="endArrow=none;html=1;rounded=0;entryX=0;entryY=0.75;entryDx=0;entryDy=0;exitX=1;exitY=0.5;exitDx=0;exitDy=0;" parent="WIyWlLk6GJQsqaUBKTNV-1" source="fokRJi9Z30o4S3k7J95h-88" target="yu7Q_5mXm-o3Nk47Cqs4-138" edge="1">
          <mxGeometry width="50" height="50" relative="1" as="geometry">
            <mxPoint x="520" y="65" as="sourcePoint" />
            <mxPoint x="500" y="15" as="targetPoint" />
          </mxGeometry>
        </mxCell>
        <mxCell id="fokRJi9Z30o4S3k7J95h-91" value="" style="endArrow=none;html=1;rounded=0;entryX=0.25;entryY=1;entryDx=0;entryDy=0;exitX=0.5;exitY=0;exitDx=0;exitDy=0;" parent="WIyWlLk6GJQsqaUBKTNV-1" source="fokRJi9Z30o4S3k7J95h-89" target="yu7Q_5mXm-o3Nk47Cqs4-138" edge="1">
          <mxGeometry width="50" height="50" relative="1" as="geometry">
            <mxPoint x="380" y="15" as="sourcePoint" />
            <mxPoint x="450" y="5" as="targetPoint" />
          </mxGeometry>
        </mxCell>
        <mxCell id="fokRJi9Z30o4S3k7J95h-92" value="" style="endArrow=none;html=1;rounded=0;entryX=1;entryY=1;entryDx=0;entryDy=0;" parent="WIyWlLk6GJQsqaUBKTNV-1" source="fokRJi9Z30o4S3k7J95h-51" target="yu7Q_5mXm-o3Nk47Cqs4-138" edge="1">
          <mxGeometry width="50" height="50" relative="1" as="geometry">
            <mxPoint x="437" y="-52" as="sourcePoint" />
            <mxPoint x="450" y="-15" as="targetPoint" />
          </mxGeometry>
        </mxCell>
        <mxCell id="fokRJi9Z30o4S3k7J95h-93" value="" style="edgeStyle=entityRelationEdgeStyle;fontSize=12;html=1;endArrow=ERoneToMany;rounded=0;exitX=0.5;exitY=1;exitDx=0;exitDy=0;entryX=1;entryY=0;entryDx=0;entryDy=0;" parent="WIyWlLk6GJQsqaUBKTNV-1" source="fokRJi9Z30o4S3k7J95h-56" target="yu7Q_5mXm-o3Nk47Cqs4-138" edge="1">
          <mxGeometry width="100" height="100" relative="1" as="geometry">
            <mxPoint x="-560" y="890" as="sourcePoint" />
            <mxPoint x="-460" y="790" as="targetPoint" />
          </mxGeometry>
        </mxCell>
        <mxCell id="fokRJi9Z30o4S3k7J95h-95" value="" style="edgeStyle=entityRelationEdgeStyle;fontSize=12;html=1;endArrow=ERmandOne;rounded=0;exitX=1;exitY=0.5;exitDx=0;exitDy=0;entryX=0;entryY=0.75;entryDx=0;entryDy=0;" parent="WIyWlLk6GJQsqaUBKTNV-1" source="fokRJi9Z30o4S3k7J95h-56" target="yu7Q_5mXm-o3Nk47Cqs4-52" edge="1">
          <mxGeometry width="100" height="100" relative="1" as="geometry">
            <mxPoint x="-790" y="910" as="sourcePoint" />
            <mxPoint x="-690" y="810" as="targetPoint" />
          </mxGeometry>
        </mxCell>
        <mxCell id="fokRJi9Z30o4S3k7J95h-96" value="Lưu lịch sử xem" style="rhombus;whiteSpace=wrap;html=1;" parent="WIyWlLk6GJQsqaUBKTNV-1" vertex="1">
          <mxGeometry x="-992.5" y="596.25" width="82.5" height="83.75" as="geometry" />
        </mxCell>
        <mxCell id="fokRJi9Z30o4S3k7J95h-97" value="" style="edgeStyle=entityRelationEdgeStyle;fontSize=12;html=1;endArrow=ERmandOne;rounded=0;exitX=0.5;exitY=0;exitDx=0;exitDy=0;entryX=0;entryY=0.75;entryDx=0;entryDy=0;" parent="WIyWlLk6GJQsqaUBKTNV-1" source="fokRJi9Z30o4S3k7J95h-96" target="yu7Q_5mXm-o3Nk47Cqs4-34" edge="1">
          <mxGeometry width="100" height="100" relative="1" as="geometry">
            <mxPoint x="-950" y="890" as="sourcePoint" />
            <mxPoint x="-850" y="790" as="targetPoint" />
          </mxGeometry>
        </mxCell>
        <mxCell id="fokRJi9Z30o4S3k7J95h-99" value="" style="edgeStyle=entityRelationEdgeStyle;fontSize=12;html=1;endArrow=ERoneToMany;rounded=0;exitX=0.5;exitY=1;exitDx=0;exitDy=0;entryX=0;entryY=0.5;entryDx=0;entryDy=0;" parent="WIyWlLk6GJQsqaUBKTNV-1" source="fokRJi9Z30o4S3k7J95h-96" target="yu7Q_5mXm-o3Nk47Cqs4-138" edge="1">
          <mxGeometry width="100" height="100" relative="1" as="geometry">
            <mxPoint x="-920" y="920" as="sourcePoint" />
            <mxPoint x="-820" y="820" as="targetPoint" />
          </mxGeometry>
        </mxCell>
        <mxCell id="fokRJi9Z30o4S3k7J95h-100" value="subscription package id" style="ellipse;whiteSpace=wrap;html=1;" parent="WIyWlLk6GJQsqaUBKTNV-1" vertex="1">
          <mxGeometry x="385" y="95" width="100" height="50" as="geometry" />
        </mxCell>
        <mxCell id="fokRJi9Z30o4S3k7J95h-101" value="" style="endArrow=none;html=1;rounded=0;exitX=0.576;exitY=1.073;exitDx=0;exitDy=0;entryX=0.43;entryY=0.047;entryDx=0;entryDy=0;entryPerimeter=0;exitPerimeter=0;" parent="WIyWlLk6GJQsqaUBKTNV-1" source="fokRJi9Z30o4S3k7J95h-100" target="yu7Q_5mXm-o3Nk47Cqs4-227" edge="1">
          <mxGeometry width="50" height="50" relative="1" as="geometry">
            <mxPoint x="385" y="-320" as="sourcePoint" />
            <mxPoint x="348" y="-370" as="targetPoint" />
          </mxGeometry>
        </mxCell>
        <mxCell id="fokRJi9Z30o4S3k7J95h-102" value="Mã quà tặng" style="rhombus;whiteSpace=wrap;html=1;" parent="WIyWlLk6GJQsqaUBKTNV-1" vertex="1">
          <mxGeometry x="310" y="255" width="85" height="80" as="geometry" />
        </mxCell>
        <mxCell id="fokRJi9Z30o4S3k7J95h-103" value="" style="edgeStyle=entityRelationEdgeStyle;fontSize=12;html=1;endArrow=ERmandOne;rounded=0;exitX=0.5;exitY=1;exitDx=0;exitDy=0;entryX=0;entryY=0.25;entryDx=0;entryDy=0;" parent="WIyWlLk6GJQsqaUBKTNV-1" source="fokRJi9Z30o4S3k7J95h-102" target="yu7Q_5mXm-o3Nk47Cqs4-75" edge="1">
          <mxGeometry width="100" height="100" relative="1" as="geometry">
            <mxPoint x="610" y="390" as="sourcePoint" />
            <mxPoint x="710" y="290" as="targetPoint" />
          </mxGeometry>
        </mxCell>
        <mxCell id="fokRJi9Z30o4S3k7J95h-104" value="" style="edgeStyle=entityRelationEdgeStyle;fontSize=12;html=1;endArrow=ERoneToMany;rounded=0;exitX=0.5;exitY=0;exitDx=0;exitDy=0;entryX=0;entryY=0.75;entryDx=0;entryDy=0;" parent="WIyWlLk6GJQsqaUBKTNV-1" source="fokRJi9Z30o4S3k7J95h-102" target="yu7Q_5mXm-o3Nk47Cqs4-227" edge="1">
          <mxGeometry width="100" height="100" relative="1" as="geometry">
            <mxPoint x="580" y="330" as="sourcePoint" />
            <mxPoint x="680" y="230" as="targetPoint" />
          </mxGeometry>
        </mxCell>
        <mxCell id="fokRJi9Z30o4S3k7J95h-105" value="subscription package id" style="ellipse;whiteSpace=wrap;html=1;" parent="WIyWlLk6GJQsqaUBKTNV-1" vertex="1">
          <mxGeometry x="625" y="1060" width="100" height="50" as="geometry" />
        </mxCell>
        <mxCell id="fokRJi9Z30o4S3k7J95h-106" value="" style="endArrow=none;html=1;rounded=0;entryX=1;entryY=0.5;entryDx=0;entryDy=0;exitX=0;exitY=0.5;exitDx=0;exitDy=0;" parent="WIyWlLk6GJQsqaUBKTNV-1" source="fokRJi9Z30o4S3k7J95h-105" target="yu7Q_5mXm-o3Nk47Cqs4-182" edge="1">
          <mxGeometry width="50" height="50" relative="1" as="geometry">
            <mxPoint x="360" y="1000" as="sourcePoint" />
            <mxPoint x="420" y="1050" as="targetPoint" />
          </mxGeometry>
        </mxCell>
        <mxCell id="fokRJi9Z30o4S3k7J95h-109" value="Tài khoản bậc premium" style="rhombus;whiteSpace=wrap;html=1;" parent="WIyWlLk6GJQsqaUBKTNV-1" vertex="1">
          <mxGeometry x="77.5" y="680" width="87.5" height="90" as="geometry" />
        </mxCell>
        <mxCell id="fokRJi9Z30o4S3k7J95h-110" value="" style="edgeStyle=entityRelationEdgeStyle;fontSize=12;html=1;endArrow=ERoneToMany;rounded=0;exitX=1;exitY=0.5;exitDx=0;exitDy=0;entryX=0;entryY=0.75;entryDx=0;entryDy=0;" parent="WIyWlLk6GJQsqaUBKTNV-1" source="fokRJi9Z30o4S3k7J95h-109" target="yu7Q_5mXm-o3Nk47Cqs4-182" edge="1">
          <mxGeometry width="100" height="100" relative="1" as="geometry">
            <mxPoint x="240" y="980" as="sourcePoint" />
            <mxPoint x="340" y="880" as="targetPoint" />
          </mxGeometry>
        </mxCell>
        <mxCell id="fokRJi9Z30o4S3k7J95h-112" value="" style="edgeStyle=entityRelationEdgeStyle;fontSize=12;html=1;endArrow=ERmandOne;rounded=0;exitX=0;exitY=0.5;exitDx=0;exitDy=0;entryX=1;entryY=1;entryDx=0;entryDy=0;" parent="WIyWlLk6GJQsqaUBKTNV-1" source="fokRJi9Z30o4S3k7J95h-109" target="yu7Q_5mXm-o3Nk47Cqs4-52" edge="1">
          <mxGeometry width="100" height="100" relative="1" as="geometry">
            <mxPoint x="270" y="810" as="sourcePoint" />
            <mxPoint x="370" y="710" as="targetPoint" />
          </mxGeometry>
        </mxCell>
        <mxCell id="7XQZZVy1sjCLKn0_qZn4-0" value="id" style="ellipse;whiteSpace=wrap;html=1;" vertex="1" parent="WIyWlLk6GJQsqaUBKTNV-1">
          <mxGeometry x="-1387.5" y="110" width="90" height="50" as="geometry" />
        </mxCell>
        <mxCell id="7XQZZVy1sjCLKn0_qZn4-1" value="&lt;i&gt;category_movies&lt;/i&gt;" style="rounded=0;whiteSpace=wrap;html=1;" vertex="1" parent="WIyWlLk6GJQsqaUBKTNV-1">
          <mxGeometry x="-1310" y="206.25" width="122.5" height="38.75" as="geometry" />
        </mxCell>
        <mxCell id="7XQZZVy1sjCLKn0_qZn4-2" value="" style="endArrow=none;html=1;rounded=0;entryX=0.25;entryY=0;entryDx=0;entryDy=0;exitX=0.5;exitY=1;exitDx=0;exitDy=0;" edge="1" parent="WIyWlLk6GJQsqaUBKTNV-1" source="7XQZZVy1sjCLKn0_qZn4-0" target="7XQZZVy1sjCLKn0_qZn4-1">
          <mxGeometry width="50" height="50" relative="1" as="geometry">
            <mxPoint x="50" y="366.25" as="sourcePoint" />
            <mxPoint x="40" y="306.25" as="targetPoint" />
          </mxGeometry>
        </mxCell>
        <mxCell id="7XQZZVy1sjCLKn0_qZn4-3" value="movie_id" style="ellipse;whiteSpace=wrap;html=1;" vertex="1" parent="WIyWlLk6GJQsqaUBKTNV-1">
          <mxGeometry x="-1187.5" y="100" width="90" height="50" as="geometry" />
        </mxCell>
        <mxCell id="7XQZZVy1sjCLKn0_qZn4-4" value="" style="endArrow=none;html=1;rounded=0;exitX=0.5;exitY=1;exitDx=0;exitDy=0;entryX=0.5;entryY=0;entryDx=0;entryDy=0;" edge="1" parent="WIyWlLk6GJQsqaUBKTNV-1" source="7XQZZVy1sjCLKn0_qZn4-5" target="7XQZZVy1sjCLKn0_qZn4-1">
          <mxGeometry relative="1" as="geometry">
            <mxPoint x="-1355" y="213.75" as="sourcePoint" />
            <mxPoint x="-1240" y="196.25" as="targetPoint" />
          </mxGeometry>
        </mxCell>
        <mxCell id="7XQZZVy1sjCLKn0_qZn4-5" value="category_id" style="ellipse;whiteSpace=wrap;html=1;" vertex="1" parent="WIyWlLk6GJQsqaUBKTNV-1">
          <mxGeometry x="-1287.5" y="110" width="90" height="50" as="geometry" />
        </mxCell>
        <mxCell id="7XQZZVy1sjCLKn0_qZn4-6" value="" style="endArrow=none;html=1;rounded=0;entryX=0.75;entryY=0;entryDx=0;entryDy=0;exitX=0.5;exitY=1;exitDx=0;exitDy=0;" edge="1" parent="WIyWlLk6GJQsqaUBKTNV-1" source="7XQZZVy1sjCLKn0_qZn4-3" target="7XQZZVy1sjCLKn0_qZn4-1">
          <mxGeometry relative="1" as="geometry">
            <mxPoint x="-1357.5" y="258.75" as="sourcePoint" />
            <mxPoint x="-1240" y="203.75" as="targetPoint" />
          </mxGeometry>
        </mxCell>
        <mxCell id="7XQZZVy1sjCLKn0_qZn4-7" value="Thuộc" style="rhombus;whiteSpace=wrap;html=1;" vertex="1" parent="WIyWlLk6GJQsqaUBKTNV-1">
          <mxGeometry x="-1465.5" y="197.5" width="80" height="62.5" as="geometry" />
        </mxCell>
        <mxCell id="7XQZZVy1sjCLKn0_qZn4-10" value="" style="endArrow=none;html=1;rounded=0;entryX=1;entryY=0.5;entryDx=0;entryDy=0;exitX=0;exitY=0.5;exitDx=0;exitDy=0;" edge="1" parent="WIyWlLk6GJQsqaUBKTNV-1" source="fokRJi9Z30o4S3k7J95h-17" target="7XQZZVy1sjCLKn0_qZn4-1">
          <mxGeometry width="50" height="50" relative="1" as="geometry">
            <mxPoint x="-1600" y="280" as="sourcePoint" />
            <mxPoint x="-1550" y="230" as="targetPoint" />
          </mxGeometry>
        </mxCell>
        <mxCell id="7XQZZVy1sjCLKn0_qZn4-12" value="" style="edgeStyle=entityRelationEdgeStyle;fontSize=12;html=1;endArrow=ERmany;rounded=0;exitX=0;exitY=0.5;exitDx=0;exitDy=0;entryX=1;entryY=0.5;entryDx=0;entryDy=0;" edge="1" parent="WIyWlLk6GJQsqaUBKTNV-1" source="7XQZZVy1sjCLKn0_qZn4-7" target="yu7Q_5mXm-o3Nk47Cqs4-19">
          <mxGeometry width="100" height="100" relative="1" as="geometry">
            <mxPoint x="-1470" y="420" as="sourcePoint" />
            <mxPoint x="-1370" y="320" as="targetPoint" />
          </mxGeometry>
        </mxCell>
        <mxCell id="7XQZZVy1sjCLKn0_qZn4-13" value="" style="endArrow=none;html=1;rounded=0;entryX=0;entryY=0.5;entryDx=0;entryDy=0;exitX=1;exitY=0.5;exitDx=0;exitDy=0;" edge="1" parent="WIyWlLk6GJQsqaUBKTNV-1" source="7XQZZVy1sjCLKn0_qZn4-7" target="7XQZZVy1sjCLKn0_qZn4-1">
          <mxGeometry relative="1" as="geometry">
            <mxPoint x="-1730" y="370" as="sourcePoint" />
            <mxPoint x="-1570" y="370" as="targetPoint" />
          </mxGeometry>
        </mxCell>
        <mxCell id="7XQZZVy1sjCLKn0_qZn4-19" value="currency" style="ellipse;whiteSpace=wrap;html=1;" vertex="1" parent="WIyWlLk6GJQsqaUBKTNV-1">
          <mxGeometry x="1240" y="681.25" width="100" height="50" as="geometry" />
        </mxCell>
        <mxCell id="7XQZZVy1sjCLKn0_qZn4-20" value="&lt;p style=&quot;margin: 12.1pt 8.55pt 0.0001pt 10.75pt;&quot; align=&quot;center&quot; class=&quot;MsoNormal&quot;&gt;&lt;i&gt;paypal_order&lt;/i&gt;&lt;/p&gt;" style="rounded=0;whiteSpace=wrap;html=1;" vertex="1" parent="WIyWlLk6GJQsqaUBKTNV-1">
          <mxGeometry x="1050" y="741.25" width="120" height="40" as="geometry" />
        </mxCell>
        <mxCell id="7XQZZVy1sjCLKn0_qZn4-21" value="" style="endArrow=none;html=1;rounded=0;entryX=0;entryY=1;entryDx=0;entryDy=0;exitX=1;exitY=0;exitDx=0;exitDy=0;" edge="1" parent="WIyWlLk6GJQsqaUBKTNV-1" target="7XQZZVy1sjCLKn0_qZn4-19" source="7XQZZVy1sjCLKn0_qZn4-20">
          <mxGeometry width="50" height="50" relative="1" as="geometry">
            <mxPoint x="1181.25" y="741.25" as="sourcePoint" />
            <mxPoint x="1480" y="751.25" as="targetPoint" />
          </mxGeometry>
        </mxCell>
        <mxCell id="7XQZZVy1sjCLKn0_qZn4-22" value="description" style="ellipse;whiteSpace=wrap;html=1;" vertex="1" parent="WIyWlLk6GJQsqaUBKTNV-1">
          <mxGeometry x="970" y="661.25" width="100" height="50" as="geometry" />
        </mxCell>
        <mxCell id="7XQZZVy1sjCLKn0_qZn4-23" value="" style="endArrow=none;html=1;rounded=0;entryX=0;entryY=0;entryDx=0;entryDy=0;exitX=0.5;exitY=1;exitDx=0;exitDy=0;" edge="1" parent="WIyWlLk6GJQsqaUBKTNV-1" source="7XQZZVy1sjCLKn0_qZn4-22" target="7XQZZVy1sjCLKn0_qZn4-20">
          <mxGeometry width="50" height="50" relative="1" as="geometry">
            <mxPoint x="640" y="871.25" as="sourcePoint" />
            <mxPoint x="690" y="821.25" as="targetPoint" />
          </mxGeometry>
        </mxCell>
        <mxCell id="7XQZZVy1sjCLKn0_qZn4-24" value="id" style="ellipse;whiteSpace=wrap;html=1;" vertex="1" parent="WIyWlLk6GJQsqaUBKTNV-1">
          <mxGeometry x="1050" y="596.25" width="90" height="50" as="geometry" />
        </mxCell>
        <mxCell id="7XQZZVy1sjCLKn0_qZn4-25" value="intent" style="ellipse;whiteSpace=wrap;html=1;" vertex="1" parent="WIyWlLk6GJQsqaUBKTNV-1">
          <mxGeometry x="1265" y="761.25" width="100" height="50" as="geometry" />
        </mxCell>
        <mxCell id="7XQZZVy1sjCLKn0_qZn4-26" value="" style="endArrow=none;html=1;rounded=0;entryX=1;entryY=0.5;entryDx=0;entryDy=0;exitX=0;exitY=0.5;exitDx=0;exitDy=0;" edge="1" parent="WIyWlLk6GJQsqaUBKTNV-1" source="7XQZZVy1sjCLKn0_qZn4-25" target="7XQZZVy1sjCLKn0_qZn4-20">
          <mxGeometry width="50" height="50" relative="1" as="geometry">
            <mxPoint x="1000" y="701.25" as="sourcePoint" />
            <mxPoint x="1060" y="751.25" as="targetPoint" />
          </mxGeometry>
        </mxCell>
        <mxCell id="7XQZZVy1sjCLKn0_qZn4-27" value="method" style="ellipse;whiteSpace=wrap;html=1;" vertex="1" parent="WIyWlLk6GJQsqaUBKTNV-1">
          <mxGeometry x="1365" y="711.25" width="100" height="50" as="geometry" />
        </mxCell>
        <mxCell id="7XQZZVy1sjCLKn0_qZn4-28" value="payer_id" style="ellipse;whiteSpace=wrap;html=1;" vertex="1" parent="WIyWlLk6GJQsqaUBKTNV-1">
          <mxGeometry x="1148.75" y="596.25" width="100" height="50" as="geometry" />
        </mxCell>
        <mxCell id="7XQZZVy1sjCLKn0_qZn4-29" value="payment_id" style="ellipse;whiteSpace=wrap;html=1;" vertex="1" parent="WIyWlLk6GJQsqaUBKTNV-1">
          <mxGeometry x="1271.25" y="621.25" width="100" height="50" as="geometry" />
        </mxCell>
        <mxCell id="7XQZZVy1sjCLKn0_qZn4-30" value="price" style="ellipse;whiteSpace=wrap;html=1;" vertex="1" parent="WIyWlLk6GJQsqaUBKTNV-1">
          <mxGeometry x="1151.25" y="801.25" width="100" height="50" as="geometry" />
        </mxCell>
        <mxCell id="7XQZZVy1sjCLKn0_qZn4-31" value="status" style="ellipse;whiteSpace=wrap;html=1;" vertex="1" parent="WIyWlLk6GJQsqaUBKTNV-1">
          <mxGeometry x="1371.25" y="651.25" width="100" height="50" as="geometry" />
        </mxCell>
        <mxCell id="7XQZZVy1sjCLKn0_qZn4-32" value="token" style="ellipse;whiteSpace=wrap;html=1;" vertex="1" parent="WIyWlLk6GJQsqaUBKTNV-1">
          <mxGeometry x="1040" y="831.25" width="100" height="50" as="geometry" />
        </mxCell>
        <mxCell id="7XQZZVy1sjCLKn0_qZn4-33" value="" style="endArrow=none;html=1;rounded=0;exitX=0.5;exitY=1;exitDx=0;exitDy=0;entryX=0;entryY=0;entryDx=0;entryDy=0;" edge="1" parent="WIyWlLk6GJQsqaUBKTNV-1" source="7XQZZVy1sjCLKn0_qZn4-24" target="7XQZZVy1sjCLKn0_qZn4-20">
          <mxGeometry relative="1" as="geometry">
            <mxPoint x="1131.25" y="701.25" as="sourcePoint" />
            <mxPoint x="1291.25" y="701.25" as="targetPoint" />
          </mxGeometry>
        </mxCell>
        <mxCell id="7XQZZVy1sjCLKn0_qZn4-34" value="" style="endArrow=none;html=1;rounded=0;exitX=0;exitY=1;exitDx=0;exitDy=0;entryX=0.117;entryY=-0.005;entryDx=0;entryDy=0;entryPerimeter=0;" edge="1" parent="WIyWlLk6GJQsqaUBKTNV-1" source="7XQZZVy1sjCLKn0_qZn4-28" target="7XQZZVy1sjCLKn0_qZn4-20">
          <mxGeometry relative="1" as="geometry">
            <mxPoint x="911.25" y="761.25" as="sourcePoint" />
            <mxPoint x="1071.25" y="761.25" as="targetPoint" />
          </mxGeometry>
        </mxCell>
        <mxCell id="7XQZZVy1sjCLKn0_qZn4-35" value="" style="endArrow=none;html=1;rounded=0;exitX=0.364;exitY=-0.085;exitDx=0;exitDy=0;exitPerimeter=0;entryX=0.04;entryY=0.748;entryDx=0;entryDy=0;entryPerimeter=0;" edge="1" parent="WIyWlLk6GJQsqaUBKTNV-1" source="7XQZZVy1sjCLKn0_qZn4-20" target="7XQZZVy1sjCLKn0_qZn4-29">
          <mxGeometry relative="1" as="geometry">
            <mxPoint x="1071.25" y="811.25" as="sourcePoint" />
            <mxPoint x="1231.25" y="811.25" as="targetPoint" />
          </mxGeometry>
        </mxCell>
        <mxCell id="7XQZZVy1sjCLKn0_qZn4-36" value="" style="endArrow=none;html=1;rounded=0;exitX=1;exitY=0.25;exitDx=0;exitDy=0;entryX=0;entryY=0.5;entryDx=0;entryDy=0;" edge="1" parent="WIyWlLk6GJQsqaUBKTNV-1" source="7XQZZVy1sjCLKn0_qZn4-20" target="7XQZZVy1sjCLKn0_qZn4-27">
          <mxGeometry relative="1" as="geometry">
            <mxPoint x="971.25" y="841.25" as="sourcePoint" />
            <mxPoint x="1131.25" y="841.25" as="targetPoint" />
          </mxGeometry>
        </mxCell>
        <mxCell id="7XQZZVy1sjCLKn0_qZn4-37" value="" style="endArrow=none;html=1;rounded=0;exitX=0.844;exitY=0.035;exitDx=0;exitDy=0;exitPerimeter=0;entryX=0;entryY=0.5;entryDx=0;entryDy=0;" edge="1" parent="WIyWlLk6GJQsqaUBKTNV-1" source="7XQZZVy1sjCLKn0_qZn4-20" target="7XQZZVy1sjCLKn0_qZn4-31">
          <mxGeometry relative="1" as="geometry">
            <mxPoint x="991.25" y="861.25" as="sourcePoint" />
            <mxPoint x="1151.25" y="861.25" as="targetPoint" />
            <Array as="points">
              <mxPoint x="1251.25" y="676.25" />
            </Array>
          </mxGeometry>
        </mxCell>
        <mxCell id="7XQZZVy1sjCLKn0_qZn4-38" value="" style="endArrow=none;html=1;rounded=0;exitX=1;exitY=1;exitDx=0;exitDy=0;entryX=0;entryY=0;entryDx=0;entryDy=0;" edge="1" parent="WIyWlLk6GJQsqaUBKTNV-1" source="7XQZZVy1sjCLKn0_qZn4-20" target="7XQZZVy1sjCLKn0_qZn4-30">
          <mxGeometry relative="1" as="geometry">
            <mxPoint x="1021.25" y="861.25" as="sourcePoint" />
            <mxPoint x="1181.25" y="861.25" as="targetPoint" />
          </mxGeometry>
        </mxCell>
        <mxCell id="7XQZZVy1sjCLKn0_qZn4-39" value="" style="endArrow=none;html=1;rounded=0;exitX=1;exitY=1;exitDx=0;exitDy=0;entryX=0.7;entryY=0;entryDx=0;entryDy=0;entryPerimeter=0;" edge="1" parent="WIyWlLk6GJQsqaUBKTNV-1" source="7XQZZVy1sjCLKn0_qZn4-20" target="7XQZZVy1sjCLKn0_qZn4-32">
          <mxGeometry relative="1" as="geometry">
            <mxPoint x="911.25" y="831.25" as="sourcePoint" />
            <mxPoint x="1071.25" y="831.25" as="targetPoint" />
          </mxGeometry>
        </mxCell>
        <mxCell id="7XQZZVy1sjCLKn0_qZn4-40" value="Lưu đơn thanh toán ví điện tử" style="rhombus;whiteSpace=wrap;html=1;" vertex="1" parent="WIyWlLk6GJQsqaUBKTNV-1">
          <mxGeometry x="820" y="711.25" width="100" height="120" as="geometry" />
        </mxCell>
        <mxCell id="7XQZZVy1sjCLKn0_qZn4-41" value="" style="edgeStyle=entityRelationEdgeStyle;fontSize=12;html=1;endArrow=ERone;endFill=1;rounded=0;exitX=1;exitY=0.5;exitDx=0;exitDy=0;entryX=0;entryY=0.75;entryDx=0;entryDy=0;" edge="1" parent="WIyWlLk6GJQsqaUBKTNV-1" source="7XQZZVy1sjCLKn0_qZn4-40" target="7XQZZVy1sjCLKn0_qZn4-20">
          <mxGeometry width="100" height="100" relative="1" as="geometry">
            <mxPoint x="900" y="960" as="sourcePoint" />
            <mxPoint x="1000" y="860" as="targetPoint" />
          </mxGeometry>
        </mxCell>
        <mxCell id="7XQZZVy1sjCLKn0_qZn4-42" value="" style="edgeStyle=entityRelationEdgeStyle;fontSize=12;html=1;endArrow=ERone;endFill=1;rounded=0;exitX=0;exitY=0.5;exitDx=0;exitDy=0;entryX=1;entryY=0.5;entryDx=0;entryDy=0;" edge="1" parent="WIyWlLk6GJQsqaUBKTNV-1" source="7XQZZVy1sjCLKn0_qZn4-40" target="yu7Q_5mXm-o3Nk47Cqs4-202">
          <mxGeometry width="100" height="100" relative="1" as="geometry">
            <mxPoint x="900" y="960" as="sourcePoint" />
            <mxPoint x="1000" y="860" as="targetPoint" />
          </mxGeometry>
        </mxCell>
        <mxCell id="7XQZZVy1sjCLKn0_qZn4-44" value="" style="edgeStyle=entityRelationEdgeStyle;fontSize=12;html=1;endArrow=ERone;endFill=1;rounded=0;entryX=0;entryY=0.75;entryDx=0;entryDy=0;exitX=0.5;exitY=0;exitDx=0;exitDy=0;" edge="1" parent="WIyWlLk6GJQsqaUBKTNV-1" source="7XQZZVy1sjCLKn0_qZn4-43" target="yu7Q_5mXm-o3Nk47Cqs4-75">
          <mxGeometry width="100" height="100" relative="1" as="geometry">
            <mxPoint x="210" y="1070" as="sourcePoint" />
            <mxPoint x="310" y="970" as="targetPoint" />
          </mxGeometry>
        </mxCell>
        <mxCell id="7XQZZVy1sjCLKn0_qZn4-43" value="Bậc premium &amp;amp; gói" style="rhombus;whiteSpace=wrap;html=1;" vertex="1" parent="WIyWlLk6GJQsqaUBKTNV-1">
          <mxGeometry x="250" y="716.25" width="80" height="73.75" as="geometry" />
        </mxCell>
        <mxCell id="7XQZZVy1sjCLKn0_qZn4-45" value="" style="edgeStyle=entityRelationEdgeStyle;fontSize=12;html=1;endArrow=ERmany;rounded=0;entryX=0;entryY=0;entryDx=0;entryDy=0;exitX=0.5;exitY=1;exitDx=0;exitDy=0;" edge="1" parent="WIyWlLk6GJQsqaUBKTNV-1" source="7XQZZVy1sjCLKn0_qZn4-43" target="yu7Q_5mXm-o3Nk47Cqs4-182">
          <mxGeometry width="100" height="100" relative="1" as="geometry">
            <mxPoint x="210" y="1060" as="sourcePoint" />
            <mxPoint x="310" y="960" as="targetPoint" />
          </mxGeometry>
        </mxCell>
      </root>
    </mxGraphModel>
  </diagram>
</mxfile>
